%TF.GenerationSoftware,KiCad,Pcbnew,6.0.11-2627ca5db0~126~ubuntu22.04.1*%
%TF.CreationDate,2023-02-10T03:37:08+05:30*%
%TF.ProjectId,thermal_sampler,74686572-6d61-46c5-9f73-616d706c6572,rev?*%
%TF.SameCoordinates,Original*%
%TF.FileFunction,Drillmap*%
%TF.FilePolarity,Positive*%
%FSLAX45Y45*%
G04 Gerber Fmt 4.5, Leading zero omitted, Abs format (unit mm)*
G04 Created by KiCad (PCBNEW 6.0.11-2627ca5db0~126~ubuntu22.04.1) date 2023-02-10 03:37:08*
%MOMM*%
%LPD*%
G01*
G04 APERTURE LIST*
%ADD10C,0.200000*%
%ADD11C,0.040000*%
%ADD12C,0.080000*%
%ADD13C,0.100000*%
%ADD14C,0.185000*%
G04 APERTURE END LIST*
D10*
X13900000Y-12200000D02*
X17300000Y-12200000D01*
X17300000Y-12200000D02*
X17300000Y-17400000D01*
X17300000Y-17400000D02*
X13900000Y-17400000D01*
X13900000Y-17400000D02*
X13900000Y-12200000D01*
D11*
X14080000Y-13280000D02*
X14120000Y-13320000D01*
X14120000Y-13280000D02*
X14080000Y-13320000D01*
X14155500Y-15365500D02*
X14195500Y-15405500D01*
X14195500Y-15365500D02*
X14155500Y-15405500D01*
X14253595Y-13735500D02*
X14293595Y-13775500D01*
X14293595Y-13735500D02*
X14253595Y-13775500D01*
X14380230Y-15044770D02*
X14420230Y-15084770D01*
X14420230Y-15044770D02*
X14380230Y-15084770D01*
X14510769Y-15234231D02*
X14550769Y-15274231D01*
X14550769Y-15234231D02*
X14510769Y-15274231D01*
X14538000Y-15093000D02*
X14578000Y-15133000D01*
X14578000Y-15093000D02*
X14538000Y-15133000D01*
X14642500Y-14017500D02*
X14682500Y-14057500D01*
X14682500Y-14017500D02*
X14642500Y-14057500D01*
X14705000Y-15055000D02*
X14745000Y-15095000D01*
X14745000Y-15055000D02*
X14705000Y-15095000D01*
X14742500Y-14074950D02*
X14782500Y-14114950D01*
X14782500Y-14074950D02*
X14742500Y-14114950D01*
X14812000Y-13514000D02*
X14852000Y-13554000D01*
X14852000Y-13514000D02*
X14812000Y-13554000D01*
X14830000Y-12830000D02*
X14870000Y-12870000D01*
X14870000Y-12830000D02*
X14830000Y-12870000D01*
X14930000Y-15180000D02*
X14970000Y-15220000D01*
X14970000Y-15180000D02*
X14930000Y-15220000D01*
X15040713Y-16029240D02*
X15080713Y-16069240D01*
X15080713Y-16029240D02*
X15040713Y-16069240D01*
X15041097Y-16129190D02*
X15081097Y-16169190D01*
X15081097Y-16129190D02*
X15041097Y-16169190D01*
X15052386Y-16316573D02*
X15092386Y-16356573D01*
X15092386Y-16316573D02*
X15052386Y-16356573D01*
X15081722Y-13579333D02*
X15121722Y-13619333D01*
X15121722Y-13579333D02*
X15081722Y-13619333D01*
X15084742Y-13681278D02*
X15124742Y-13721278D01*
X15124742Y-13681278D02*
X15084742Y-13721278D01*
X15085350Y-13781226D02*
X15125350Y-13821226D01*
X15125350Y-13781226D02*
X15085350Y-13821226D01*
X15165502Y-15278502D02*
X15205502Y-15318502D01*
X15205502Y-15278502D02*
X15165502Y-15318502D01*
X15180000Y-14937021D02*
X15220000Y-14977021D01*
X15220000Y-14937021D02*
X15180000Y-14977021D01*
X15256642Y-13009967D02*
X15296642Y-13049967D01*
X15296642Y-13009967D02*
X15256642Y-13049967D01*
X15286000Y-14949000D02*
X15326000Y-14989000D01*
X15326000Y-14949000D02*
X15286000Y-14989000D01*
X15339906Y-15452906D02*
X15379906Y-15492906D01*
X15379906Y-15452906D02*
X15339906Y-15492906D01*
X15372000Y-15950000D02*
X15412000Y-15990000D01*
X15412000Y-15950000D02*
X15372000Y-15990000D01*
X15390050Y-12730871D02*
X15430050Y-12770871D01*
X15430050Y-12730871D02*
X15390050Y-12770871D01*
X15443625Y-14057784D02*
X15483625Y-14097784D01*
X15483625Y-14057784D02*
X15443625Y-14097784D01*
X15477450Y-14458000D02*
X15517450Y-14498000D01*
X15517450Y-14458000D02*
X15477450Y-14498000D01*
X15543198Y-14066458D02*
X15583198Y-14106458D01*
X15583198Y-14066458D02*
X15543198Y-14106458D01*
X15561509Y-14512075D02*
X15601509Y-14552075D01*
X15601509Y-14512075D02*
X15561509Y-14552075D01*
X15580000Y-12780000D02*
X15620000Y-12820000D01*
X15620000Y-12780000D02*
X15580000Y-12820000D01*
X15615642Y-15920362D02*
X15655642Y-15960362D01*
X15655642Y-15920362D02*
X15615642Y-15960362D01*
X15673135Y-14499812D02*
X15713135Y-14539812D01*
X15713135Y-14499812D02*
X15673135Y-14539812D01*
X15680000Y-13780000D02*
X15720000Y-13820000D01*
X15720000Y-13780000D02*
X15680000Y-13820000D01*
X15726002Y-14117998D02*
X15766002Y-14157998D01*
X15766002Y-14117998D02*
X15726002Y-14157998D01*
X15752000Y-12425050D02*
X15792000Y-12465050D01*
X15792000Y-12425050D02*
X15752000Y-12465050D01*
X15927450Y-13943000D02*
X15967450Y-13983000D01*
X15967450Y-13943000D02*
X15927450Y-13983000D01*
X15927500Y-14538800D02*
X15967500Y-14578800D01*
X15967500Y-14538800D02*
X15927500Y-14578800D01*
X15980000Y-16205000D02*
X16020000Y-16245000D01*
X16020000Y-16205000D02*
X15980000Y-16245000D01*
X15994000Y-13105000D02*
X16034000Y-13145000D01*
X16034000Y-13105000D02*
X15994000Y-13145000D01*
X16012000Y-14785000D02*
X16052000Y-14825000D01*
X16052000Y-14785000D02*
X16012000Y-14825000D01*
X16030000Y-12438000D02*
X16070000Y-12478000D01*
X16070000Y-12438000D02*
X16030000Y-12478000D01*
X16045570Y-12812255D02*
X16085570Y-12852255D01*
X16085570Y-12812255D02*
X16045570Y-12852255D01*
X16120000Y-14265000D02*
X16160000Y-14305000D01*
X16160000Y-14265000D02*
X16120000Y-14305000D01*
X16180000Y-16132550D02*
X16220000Y-16172550D01*
X16220000Y-16132550D02*
X16180000Y-16172550D01*
X16237538Y-13261462D02*
X16277538Y-13301462D01*
X16277538Y-13261462D02*
X16237538Y-13301462D01*
X16272108Y-15603267D02*
X16312108Y-15643267D01*
X16312108Y-15603267D02*
X16272108Y-15643267D01*
X16274317Y-14440682D02*
X16314317Y-14480682D01*
X16314317Y-14440682D02*
X16274317Y-14480682D01*
X16288134Y-15710108D02*
X16328134Y-15750108D01*
X16328134Y-15710108D02*
X16288134Y-15750108D01*
X16299000Y-12842450D02*
X16339000Y-12882450D01*
X16339000Y-12842450D02*
X16299000Y-12882450D01*
X16303000Y-15075000D02*
X16343000Y-15115000D01*
X16343000Y-15075000D02*
X16303000Y-15115000D01*
X16324000Y-15940000D02*
X16364000Y-15980000D01*
X16364000Y-15940000D02*
X16324000Y-15980000D01*
X16336462Y-13162538D02*
X16376462Y-13202538D01*
X16376462Y-13162538D02*
X16336462Y-13202538D01*
X16374325Y-14199295D02*
X16414325Y-14239295D01*
X16414325Y-14199295D02*
X16374325Y-14239295D01*
X16386550Y-13367000D02*
X16426550Y-13407000D01*
X16426550Y-13367000D02*
X16386550Y-13407000D01*
X16407498Y-15076502D02*
X16447498Y-15116502D01*
X16447498Y-15076502D02*
X16407498Y-15116502D01*
X16477635Y-14382365D02*
X16517635Y-14422365D01*
X16517635Y-14382365D02*
X16477635Y-14422365D01*
X16516270Y-16016270D02*
X16556270Y-16056270D01*
X16556270Y-16016270D02*
X16516270Y-16056270D01*
X16609835Y-14232209D02*
X16649835Y-14272209D01*
X16649835Y-14232209D02*
X16609835Y-14272209D01*
X16790000Y-15795000D02*
X16830000Y-15835000D01*
X16830000Y-15795000D02*
X16790000Y-15835000D01*
X17130000Y-14155000D02*
X17170000Y-14195000D01*
X17170000Y-14155000D02*
X17130000Y-14195000D01*
D12*
X14447247Y-12942462D02*
G75*
G03*
X14447247Y-12942462I-40000J0D01*
G01*
X14532752Y-12707538D02*
G75*
G03*
X14532752Y-12707538I-40000J0D01*
G01*
X16190000Y-14725000D02*
G75*
G03*
X16190000Y-14725000I-40000J0D01*
G01*
X16190000Y-14975000D02*
G75*
G03*
X16190000Y-14975000I-40000J0D01*
G01*
X16915000Y-14725000D02*
G75*
G03*
X16915000Y-14725000I-40000J0D01*
G01*
X16915000Y-14975000D02*
G75*
G03*
X16915000Y-14975000I-40000J0D01*
G01*
D13*
X17075000Y-12396000D02*
X17075000Y-12496000D01*
X17025000Y-12446000D02*
X17125000Y-12446000D01*
X17075000Y-12650000D02*
X17075000Y-12750000D01*
X17025000Y-12700000D02*
X17125000Y-12700000D01*
D14*
X14685408Y-13490408D02*
X14685408Y-13359592D01*
X14554592Y-13359592D01*
X14554592Y-13490408D01*
X14685408Y-13490408D01*
X16795408Y-13490408D02*
X16795408Y-13359592D01*
X16664592Y-13359592D01*
X16664592Y-13490408D01*
X16795408Y-13490408D01*
D10*
X14147619Y-17720476D02*
X14147619Y-17520476D01*
X14195238Y-17520476D01*
X14223809Y-17530000D01*
X14242857Y-17549048D01*
X14252381Y-17568095D01*
X14261905Y-17606190D01*
X14261905Y-17634762D01*
X14252381Y-17672857D01*
X14242857Y-17691905D01*
X14223809Y-17710952D01*
X14195238Y-17720476D01*
X14147619Y-17720476D01*
X14347619Y-17720476D02*
X14347619Y-17587143D01*
X14347619Y-17625238D02*
X14357143Y-17606190D01*
X14366667Y-17596667D01*
X14385714Y-17587143D01*
X14404762Y-17587143D01*
X14471428Y-17720476D02*
X14471428Y-17587143D01*
X14471428Y-17520476D02*
X14461905Y-17530000D01*
X14471428Y-17539524D01*
X14480952Y-17530000D01*
X14471428Y-17520476D01*
X14471428Y-17539524D01*
X14595238Y-17720476D02*
X14576190Y-17710952D01*
X14566667Y-17691905D01*
X14566667Y-17520476D01*
X14700000Y-17720476D02*
X14680952Y-17710952D01*
X14671428Y-17691905D01*
X14671428Y-17520476D01*
X14928571Y-17720476D02*
X14928571Y-17520476D01*
X14995238Y-17663333D01*
X15061905Y-17520476D01*
X15061905Y-17720476D01*
X15242857Y-17720476D02*
X15242857Y-17615714D01*
X15233333Y-17596667D01*
X15214286Y-17587143D01*
X15176190Y-17587143D01*
X15157143Y-17596667D01*
X15242857Y-17710952D02*
X15223809Y-17720476D01*
X15176190Y-17720476D01*
X15157143Y-17710952D01*
X15147619Y-17691905D01*
X15147619Y-17672857D01*
X15157143Y-17653810D01*
X15176190Y-17644286D01*
X15223809Y-17644286D01*
X15242857Y-17634762D01*
X15338095Y-17587143D02*
X15338095Y-17787143D01*
X15338095Y-17596667D02*
X15357143Y-17587143D01*
X15395238Y-17587143D01*
X15414286Y-17596667D01*
X15423809Y-17606190D01*
X15433333Y-17625238D01*
X15433333Y-17682381D01*
X15423809Y-17701429D01*
X15414286Y-17710952D01*
X15395238Y-17720476D01*
X15357143Y-17720476D01*
X15338095Y-17710952D01*
X15519048Y-17701429D02*
X15528571Y-17710952D01*
X15519048Y-17720476D01*
X15509524Y-17710952D01*
X15519048Y-17701429D01*
X15519048Y-17720476D01*
X15519048Y-17596667D02*
X15528571Y-17606190D01*
X15519048Y-17615714D01*
X15509524Y-17606190D01*
X15519048Y-17596667D01*
X15519048Y-17615714D01*
D11*
X13850000Y-18030000D02*
X13890000Y-18070000D01*
X13890000Y-18030000D02*
X13850000Y-18070000D01*
D10*
X14185714Y-17940476D02*
X14204762Y-17940476D01*
X14223809Y-17950000D01*
X14233333Y-17959524D01*
X14242857Y-17978571D01*
X14252381Y-18016667D01*
X14252381Y-18064286D01*
X14242857Y-18102381D01*
X14233333Y-18121429D01*
X14223809Y-18130952D01*
X14204762Y-18140476D01*
X14185714Y-18140476D01*
X14166667Y-18130952D01*
X14157143Y-18121429D01*
X14147619Y-18102381D01*
X14138095Y-18064286D01*
X14138095Y-18016667D01*
X14147619Y-17978571D01*
X14157143Y-17959524D01*
X14166667Y-17950000D01*
X14185714Y-17940476D01*
X14338095Y-18121429D02*
X14347619Y-18130952D01*
X14338095Y-18140476D01*
X14328571Y-18130952D01*
X14338095Y-18121429D01*
X14338095Y-18140476D01*
X14519048Y-18007143D02*
X14519048Y-18140476D01*
X14471428Y-17930952D02*
X14423809Y-18073810D01*
X14547619Y-18073810D01*
X14661905Y-17940476D02*
X14680952Y-17940476D01*
X14700000Y-17950000D01*
X14709524Y-17959524D01*
X14719048Y-17978571D01*
X14728571Y-18016667D01*
X14728571Y-18064286D01*
X14719048Y-18102381D01*
X14709524Y-18121429D01*
X14700000Y-18130952D01*
X14680952Y-18140476D01*
X14661905Y-18140476D01*
X14642857Y-18130952D01*
X14633333Y-18121429D01*
X14623809Y-18102381D01*
X14614286Y-18064286D01*
X14614286Y-18016667D01*
X14623809Y-17978571D01*
X14633333Y-17959524D01*
X14642857Y-17950000D01*
X14661905Y-17940476D01*
X14852381Y-17940476D02*
X14871428Y-17940476D01*
X14890476Y-17950000D01*
X14900000Y-17959524D01*
X14909524Y-17978571D01*
X14919048Y-18016667D01*
X14919048Y-18064286D01*
X14909524Y-18102381D01*
X14900000Y-18121429D01*
X14890476Y-18130952D01*
X14871428Y-18140476D01*
X14852381Y-18140476D01*
X14833333Y-18130952D01*
X14823809Y-18121429D01*
X14814286Y-18102381D01*
X14804762Y-18064286D01*
X14804762Y-18016667D01*
X14814286Y-17978571D01*
X14823809Y-17959524D01*
X14833333Y-17950000D01*
X14852381Y-17940476D01*
X15004762Y-18140476D02*
X15004762Y-18007143D01*
X15004762Y-18026190D02*
X15014286Y-18016667D01*
X15033333Y-18007143D01*
X15061905Y-18007143D01*
X15080952Y-18016667D01*
X15090476Y-18035714D01*
X15090476Y-18140476D01*
X15090476Y-18035714D02*
X15100000Y-18016667D01*
X15119048Y-18007143D01*
X15147619Y-18007143D01*
X15166667Y-18016667D01*
X15176190Y-18035714D01*
X15176190Y-18140476D01*
X15271428Y-18140476D02*
X15271428Y-18007143D01*
X15271428Y-18026190D02*
X15280952Y-18016667D01*
X15300000Y-18007143D01*
X15328571Y-18007143D01*
X15347619Y-18016667D01*
X15357143Y-18035714D01*
X15357143Y-18140476D01*
X15357143Y-18035714D02*
X15366667Y-18016667D01*
X15385714Y-18007143D01*
X15414286Y-18007143D01*
X15433333Y-18016667D01*
X15442857Y-18035714D01*
X15442857Y-18140476D01*
X15833333Y-17930952D02*
X15661905Y-18188095D01*
X16090476Y-17940476D02*
X16109524Y-17940476D01*
X16128571Y-17950000D01*
X16138095Y-17959524D01*
X16147619Y-17978571D01*
X16157143Y-18016667D01*
X16157143Y-18064286D01*
X16147619Y-18102381D01*
X16138095Y-18121429D01*
X16128571Y-18130952D01*
X16109524Y-18140476D01*
X16090476Y-18140476D01*
X16071428Y-18130952D01*
X16061905Y-18121429D01*
X16052381Y-18102381D01*
X16042857Y-18064286D01*
X16042857Y-18016667D01*
X16052381Y-17978571D01*
X16061905Y-17959524D01*
X16071428Y-17950000D01*
X16090476Y-17940476D01*
X16242857Y-18121429D02*
X16252381Y-18130952D01*
X16242857Y-18140476D01*
X16233333Y-18130952D01*
X16242857Y-18121429D01*
X16242857Y-18140476D01*
X16376190Y-17940476D02*
X16395238Y-17940476D01*
X16414286Y-17950000D01*
X16423809Y-17959524D01*
X16433333Y-17978571D01*
X16442857Y-18016667D01*
X16442857Y-18064286D01*
X16433333Y-18102381D01*
X16423809Y-18121429D01*
X16414286Y-18130952D01*
X16395238Y-18140476D01*
X16376190Y-18140476D01*
X16357143Y-18130952D01*
X16347619Y-18121429D01*
X16338095Y-18102381D01*
X16328571Y-18064286D01*
X16328571Y-18016667D01*
X16338095Y-17978571D01*
X16347619Y-17959524D01*
X16357143Y-17950000D01*
X16376190Y-17940476D01*
X16633333Y-18140476D02*
X16519048Y-18140476D01*
X16576190Y-18140476D02*
X16576190Y-17940476D01*
X16557143Y-17969048D01*
X16538095Y-17988095D01*
X16519048Y-17997619D01*
X16814286Y-17940476D02*
X16719048Y-17940476D01*
X16709524Y-18035714D01*
X16719048Y-18026190D01*
X16738095Y-18016667D01*
X16785714Y-18016667D01*
X16804762Y-18026190D01*
X16814286Y-18035714D01*
X16823810Y-18054762D01*
X16823810Y-18102381D01*
X16814286Y-18121429D01*
X16804762Y-18130952D01*
X16785714Y-18140476D01*
X16738095Y-18140476D01*
X16719048Y-18130952D01*
X16709524Y-18121429D01*
X16890476Y-17940476D02*
X17023810Y-17940476D01*
X16938095Y-18140476D01*
X17090476Y-17940476D02*
X17090476Y-17978571D01*
X17166667Y-17940476D02*
X17166667Y-17978571D01*
X17461905Y-18216667D02*
X17452381Y-18207143D01*
X17433333Y-18178571D01*
X17423810Y-18159524D01*
X17414286Y-18130952D01*
X17404762Y-18083333D01*
X17404762Y-18045238D01*
X17414286Y-17997619D01*
X17423810Y-17969048D01*
X17433333Y-17950000D01*
X17452381Y-17921429D01*
X17461905Y-17911905D01*
X17623810Y-17940476D02*
X17585714Y-17940476D01*
X17566667Y-17950000D01*
X17557143Y-17959524D01*
X17538095Y-17988095D01*
X17528571Y-18026190D01*
X17528571Y-18102381D01*
X17538095Y-18121429D01*
X17547619Y-18130952D01*
X17566667Y-18140476D01*
X17604762Y-18140476D01*
X17623810Y-18130952D01*
X17633333Y-18121429D01*
X17642857Y-18102381D01*
X17642857Y-18054762D01*
X17633333Y-18035714D01*
X17623810Y-18026190D01*
X17604762Y-18016667D01*
X17566667Y-18016667D01*
X17547619Y-18026190D01*
X17538095Y-18035714D01*
X17528571Y-18054762D01*
X17766667Y-17940476D02*
X17785714Y-17940476D01*
X17804762Y-17950000D01*
X17814286Y-17959524D01*
X17823810Y-17978571D01*
X17833333Y-18016667D01*
X17833333Y-18064286D01*
X17823810Y-18102381D01*
X17814286Y-18121429D01*
X17804762Y-18130952D01*
X17785714Y-18140476D01*
X17766667Y-18140476D01*
X17747619Y-18130952D01*
X17738095Y-18121429D01*
X17728571Y-18102381D01*
X17719048Y-18064286D01*
X17719048Y-18016667D01*
X17728571Y-17978571D01*
X17738095Y-17959524D01*
X17747619Y-17950000D01*
X17766667Y-17940476D01*
X18071429Y-18140476D02*
X18071429Y-17940476D01*
X18157143Y-18140476D02*
X18157143Y-18035714D01*
X18147619Y-18016667D01*
X18128571Y-18007143D01*
X18100000Y-18007143D01*
X18080952Y-18016667D01*
X18071429Y-18026190D01*
X18280952Y-18140476D02*
X18261905Y-18130952D01*
X18252381Y-18121429D01*
X18242857Y-18102381D01*
X18242857Y-18045238D01*
X18252381Y-18026190D01*
X18261905Y-18016667D01*
X18280952Y-18007143D01*
X18309524Y-18007143D01*
X18328571Y-18016667D01*
X18338095Y-18026190D01*
X18347619Y-18045238D01*
X18347619Y-18102381D01*
X18338095Y-18121429D01*
X18328571Y-18130952D01*
X18309524Y-18140476D01*
X18280952Y-18140476D01*
X18461905Y-18140476D02*
X18442857Y-18130952D01*
X18433333Y-18111905D01*
X18433333Y-17940476D01*
X18614286Y-18130952D02*
X18595238Y-18140476D01*
X18557143Y-18140476D01*
X18538095Y-18130952D01*
X18528571Y-18111905D01*
X18528571Y-18035714D01*
X18538095Y-18016667D01*
X18557143Y-18007143D01*
X18595238Y-18007143D01*
X18614286Y-18016667D01*
X18623810Y-18035714D01*
X18623810Y-18054762D01*
X18528571Y-18073810D01*
X18700000Y-18130952D02*
X18719048Y-18140476D01*
X18757143Y-18140476D01*
X18776190Y-18130952D01*
X18785714Y-18111905D01*
X18785714Y-18102381D01*
X18776190Y-18083333D01*
X18757143Y-18073810D01*
X18728571Y-18073810D01*
X18709524Y-18064286D01*
X18700000Y-18045238D01*
X18700000Y-18035714D01*
X18709524Y-18016667D01*
X18728571Y-18007143D01*
X18757143Y-18007143D01*
X18776190Y-18016667D01*
X18852381Y-18216667D02*
X18861905Y-18207143D01*
X18880952Y-18178571D01*
X18890476Y-18159524D01*
X18900000Y-18130952D01*
X18909524Y-18083333D01*
X18909524Y-18045238D01*
X18900000Y-17997619D01*
X18890476Y-17969048D01*
X18880952Y-17950000D01*
X18861905Y-17921429D01*
X18852381Y-17911905D01*
D12*
X13890000Y-18314000D02*
G75*
G03*
X13890000Y-18314000I-40000J0D01*
G01*
D10*
X14185714Y-18204476D02*
X14204762Y-18204476D01*
X14223809Y-18214000D01*
X14233333Y-18223524D01*
X14242857Y-18242571D01*
X14252381Y-18280667D01*
X14252381Y-18328286D01*
X14242857Y-18366381D01*
X14233333Y-18385429D01*
X14223809Y-18394952D01*
X14204762Y-18404476D01*
X14185714Y-18404476D01*
X14166667Y-18394952D01*
X14157143Y-18385429D01*
X14147619Y-18366381D01*
X14138095Y-18328286D01*
X14138095Y-18280667D01*
X14147619Y-18242571D01*
X14157143Y-18223524D01*
X14166667Y-18214000D01*
X14185714Y-18204476D01*
X14338095Y-18385429D02*
X14347619Y-18394952D01*
X14338095Y-18404476D01*
X14328571Y-18394952D01*
X14338095Y-18385429D01*
X14338095Y-18404476D01*
X14461905Y-18290190D02*
X14442857Y-18280667D01*
X14433333Y-18271143D01*
X14423809Y-18252095D01*
X14423809Y-18242571D01*
X14433333Y-18223524D01*
X14442857Y-18214000D01*
X14461905Y-18204476D01*
X14500000Y-18204476D01*
X14519048Y-18214000D01*
X14528571Y-18223524D01*
X14538095Y-18242571D01*
X14538095Y-18252095D01*
X14528571Y-18271143D01*
X14519048Y-18280667D01*
X14500000Y-18290190D01*
X14461905Y-18290190D01*
X14442857Y-18299714D01*
X14433333Y-18309238D01*
X14423809Y-18328286D01*
X14423809Y-18366381D01*
X14433333Y-18385429D01*
X14442857Y-18394952D01*
X14461905Y-18404476D01*
X14500000Y-18404476D01*
X14519048Y-18394952D01*
X14528571Y-18385429D01*
X14538095Y-18366381D01*
X14538095Y-18328286D01*
X14528571Y-18309238D01*
X14519048Y-18299714D01*
X14500000Y-18290190D01*
X14661905Y-18204476D02*
X14680952Y-18204476D01*
X14700000Y-18214000D01*
X14709524Y-18223524D01*
X14719048Y-18242571D01*
X14728571Y-18280667D01*
X14728571Y-18328286D01*
X14719048Y-18366381D01*
X14709524Y-18385429D01*
X14700000Y-18394952D01*
X14680952Y-18404476D01*
X14661905Y-18404476D01*
X14642857Y-18394952D01*
X14633333Y-18385429D01*
X14623809Y-18366381D01*
X14614286Y-18328286D01*
X14614286Y-18280667D01*
X14623809Y-18242571D01*
X14633333Y-18223524D01*
X14642857Y-18214000D01*
X14661905Y-18204476D01*
X14852381Y-18204476D02*
X14871428Y-18204476D01*
X14890476Y-18214000D01*
X14900000Y-18223524D01*
X14909524Y-18242571D01*
X14919048Y-18280667D01*
X14919048Y-18328286D01*
X14909524Y-18366381D01*
X14900000Y-18385429D01*
X14890476Y-18394952D01*
X14871428Y-18404476D01*
X14852381Y-18404476D01*
X14833333Y-18394952D01*
X14823809Y-18385429D01*
X14814286Y-18366381D01*
X14804762Y-18328286D01*
X14804762Y-18280667D01*
X14814286Y-18242571D01*
X14823809Y-18223524D01*
X14833333Y-18214000D01*
X14852381Y-18204476D01*
X15004762Y-18404476D02*
X15004762Y-18271143D01*
X15004762Y-18290190D02*
X15014286Y-18280667D01*
X15033333Y-18271143D01*
X15061905Y-18271143D01*
X15080952Y-18280667D01*
X15090476Y-18299714D01*
X15090476Y-18404476D01*
X15090476Y-18299714D02*
X15100000Y-18280667D01*
X15119048Y-18271143D01*
X15147619Y-18271143D01*
X15166667Y-18280667D01*
X15176190Y-18299714D01*
X15176190Y-18404476D01*
X15271428Y-18404476D02*
X15271428Y-18271143D01*
X15271428Y-18290190D02*
X15280952Y-18280667D01*
X15300000Y-18271143D01*
X15328571Y-18271143D01*
X15347619Y-18280667D01*
X15357143Y-18299714D01*
X15357143Y-18404476D01*
X15357143Y-18299714D02*
X15366667Y-18280667D01*
X15385714Y-18271143D01*
X15414286Y-18271143D01*
X15433333Y-18280667D01*
X15442857Y-18299714D01*
X15442857Y-18404476D01*
X15833333Y-18194952D02*
X15661905Y-18452095D01*
X16090476Y-18204476D02*
X16109524Y-18204476D01*
X16128571Y-18214000D01*
X16138095Y-18223524D01*
X16147619Y-18242571D01*
X16157143Y-18280667D01*
X16157143Y-18328286D01*
X16147619Y-18366381D01*
X16138095Y-18385429D01*
X16128571Y-18394952D01*
X16109524Y-18404476D01*
X16090476Y-18404476D01*
X16071428Y-18394952D01*
X16061905Y-18385429D01*
X16052381Y-18366381D01*
X16042857Y-18328286D01*
X16042857Y-18280667D01*
X16052381Y-18242571D01*
X16061905Y-18223524D01*
X16071428Y-18214000D01*
X16090476Y-18204476D01*
X16242857Y-18385429D02*
X16252381Y-18394952D01*
X16242857Y-18404476D01*
X16233333Y-18394952D01*
X16242857Y-18385429D01*
X16242857Y-18404476D01*
X16376190Y-18204476D02*
X16395238Y-18204476D01*
X16414286Y-18214000D01*
X16423809Y-18223524D01*
X16433333Y-18242571D01*
X16442857Y-18280667D01*
X16442857Y-18328286D01*
X16433333Y-18366381D01*
X16423809Y-18385429D01*
X16414286Y-18394952D01*
X16395238Y-18404476D01*
X16376190Y-18404476D01*
X16357143Y-18394952D01*
X16347619Y-18385429D01*
X16338095Y-18366381D01*
X16328571Y-18328286D01*
X16328571Y-18280667D01*
X16338095Y-18242571D01*
X16347619Y-18223524D01*
X16357143Y-18214000D01*
X16376190Y-18204476D01*
X16509524Y-18204476D02*
X16633333Y-18204476D01*
X16566667Y-18280667D01*
X16595238Y-18280667D01*
X16614286Y-18290190D01*
X16623809Y-18299714D01*
X16633333Y-18318762D01*
X16633333Y-18366381D01*
X16623809Y-18385429D01*
X16614286Y-18394952D01*
X16595238Y-18404476D01*
X16538095Y-18404476D01*
X16519048Y-18394952D01*
X16509524Y-18385429D01*
X16823810Y-18404476D02*
X16709524Y-18404476D01*
X16766667Y-18404476D02*
X16766667Y-18204476D01*
X16747619Y-18233048D01*
X16728571Y-18252095D01*
X16709524Y-18261619D01*
X17004762Y-18204476D02*
X16909524Y-18204476D01*
X16900000Y-18299714D01*
X16909524Y-18290190D01*
X16928571Y-18280667D01*
X16976190Y-18280667D01*
X16995238Y-18290190D01*
X17004762Y-18299714D01*
X17014286Y-18318762D01*
X17014286Y-18366381D01*
X17004762Y-18385429D01*
X16995238Y-18394952D01*
X16976190Y-18404476D01*
X16928571Y-18404476D01*
X16909524Y-18394952D01*
X16900000Y-18385429D01*
X17090476Y-18204476D02*
X17090476Y-18242571D01*
X17166667Y-18204476D02*
X17166667Y-18242571D01*
X17461905Y-18480667D02*
X17452381Y-18471143D01*
X17433333Y-18442571D01*
X17423810Y-18423524D01*
X17414286Y-18394952D01*
X17404762Y-18347333D01*
X17404762Y-18309238D01*
X17414286Y-18261619D01*
X17423810Y-18233048D01*
X17433333Y-18214000D01*
X17452381Y-18185429D01*
X17461905Y-18175905D01*
X17623810Y-18204476D02*
X17585714Y-18204476D01*
X17566667Y-18214000D01*
X17557143Y-18223524D01*
X17538095Y-18252095D01*
X17528571Y-18290190D01*
X17528571Y-18366381D01*
X17538095Y-18385429D01*
X17547619Y-18394952D01*
X17566667Y-18404476D01*
X17604762Y-18404476D01*
X17623810Y-18394952D01*
X17633333Y-18385429D01*
X17642857Y-18366381D01*
X17642857Y-18318762D01*
X17633333Y-18299714D01*
X17623810Y-18290190D01*
X17604762Y-18280667D01*
X17566667Y-18280667D01*
X17547619Y-18290190D01*
X17538095Y-18299714D01*
X17528571Y-18318762D01*
X17880952Y-18404476D02*
X17880952Y-18204476D01*
X17966667Y-18404476D02*
X17966667Y-18299714D01*
X17957143Y-18280667D01*
X17938095Y-18271143D01*
X17909524Y-18271143D01*
X17890476Y-18280667D01*
X17880952Y-18290190D01*
X18090476Y-18404476D02*
X18071429Y-18394952D01*
X18061905Y-18385429D01*
X18052381Y-18366381D01*
X18052381Y-18309238D01*
X18061905Y-18290190D01*
X18071429Y-18280667D01*
X18090476Y-18271143D01*
X18119048Y-18271143D01*
X18138095Y-18280667D01*
X18147619Y-18290190D01*
X18157143Y-18309238D01*
X18157143Y-18366381D01*
X18147619Y-18385429D01*
X18138095Y-18394952D01*
X18119048Y-18404476D01*
X18090476Y-18404476D01*
X18271429Y-18404476D02*
X18252381Y-18394952D01*
X18242857Y-18375905D01*
X18242857Y-18204476D01*
X18423810Y-18394952D02*
X18404762Y-18404476D01*
X18366667Y-18404476D01*
X18347619Y-18394952D01*
X18338095Y-18375905D01*
X18338095Y-18299714D01*
X18347619Y-18280667D01*
X18366667Y-18271143D01*
X18404762Y-18271143D01*
X18423810Y-18280667D01*
X18433333Y-18299714D01*
X18433333Y-18318762D01*
X18338095Y-18337810D01*
X18509524Y-18394952D02*
X18528571Y-18404476D01*
X18566667Y-18404476D01*
X18585714Y-18394952D01*
X18595238Y-18375905D01*
X18595238Y-18366381D01*
X18585714Y-18347333D01*
X18566667Y-18337810D01*
X18538095Y-18337810D01*
X18519048Y-18328286D01*
X18509524Y-18309238D01*
X18509524Y-18299714D01*
X18519048Y-18280667D01*
X18538095Y-18271143D01*
X18566667Y-18271143D01*
X18585714Y-18280667D01*
X18661905Y-18480667D02*
X18671429Y-18471143D01*
X18690476Y-18442571D01*
X18700000Y-18423524D01*
X18709524Y-18394952D01*
X18719048Y-18347333D01*
X18719048Y-18309238D01*
X18709524Y-18261619D01*
X18700000Y-18233048D01*
X18690476Y-18214000D01*
X18671429Y-18185429D01*
X18661905Y-18175905D01*
D13*
X13840000Y-18528000D02*
X13840000Y-18628000D01*
X13790000Y-18578000D02*
X13890000Y-18578000D01*
D10*
X14252381Y-18668476D02*
X14138095Y-18668476D01*
X14195238Y-18668476D02*
X14195238Y-18468476D01*
X14176190Y-18497048D01*
X14157143Y-18516095D01*
X14138095Y-18525619D01*
X14338095Y-18649429D02*
X14347619Y-18658952D01*
X14338095Y-18668476D01*
X14328571Y-18658952D01*
X14338095Y-18649429D01*
X14338095Y-18668476D01*
X14471428Y-18468476D02*
X14490476Y-18468476D01*
X14509524Y-18478000D01*
X14519048Y-18487524D01*
X14528571Y-18506571D01*
X14538095Y-18544667D01*
X14538095Y-18592286D01*
X14528571Y-18630381D01*
X14519048Y-18649429D01*
X14509524Y-18658952D01*
X14490476Y-18668476D01*
X14471428Y-18668476D01*
X14452381Y-18658952D01*
X14442857Y-18649429D01*
X14433333Y-18630381D01*
X14423809Y-18592286D01*
X14423809Y-18544667D01*
X14433333Y-18506571D01*
X14442857Y-18487524D01*
X14452381Y-18478000D01*
X14471428Y-18468476D01*
X14661905Y-18468476D02*
X14680952Y-18468476D01*
X14700000Y-18478000D01*
X14709524Y-18487524D01*
X14719048Y-18506571D01*
X14728571Y-18544667D01*
X14728571Y-18592286D01*
X14719048Y-18630381D01*
X14709524Y-18649429D01*
X14700000Y-18658952D01*
X14680952Y-18668476D01*
X14661905Y-18668476D01*
X14642857Y-18658952D01*
X14633333Y-18649429D01*
X14623809Y-18630381D01*
X14614286Y-18592286D01*
X14614286Y-18544667D01*
X14623809Y-18506571D01*
X14633333Y-18487524D01*
X14642857Y-18478000D01*
X14661905Y-18468476D01*
X14852381Y-18468476D02*
X14871428Y-18468476D01*
X14890476Y-18478000D01*
X14900000Y-18487524D01*
X14909524Y-18506571D01*
X14919048Y-18544667D01*
X14919048Y-18592286D01*
X14909524Y-18630381D01*
X14900000Y-18649429D01*
X14890476Y-18658952D01*
X14871428Y-18668476D01*
X14852381Y-18668476D01*
X14833333Y-18658952D01*
X14823809Y-18649429D01*
X14814286Y-18630381D01*
X14804762Y-18592286D01*
X14804762Y-18544667D01*
X14814286Y-18506571D01*
X14823809Y-18487524D01*
X14833333Y-18478000D01*
X14852381Y-18468476D01*
X15004762Y-18668476D02*
X15004762Y-18535143D01*
X15004762Y-18554190D02*
X15014286Y-18544667D01*
X15033333Y-18535143D01*
X15061905Y-18535143D01*
X15080952Y-18544667D01*
X15090476Y-18563714D01*
X15090476Y-18668476D01*
X15090476Y-18563714D02*
X15100000Y-18544667D01*
X15119048Y-18535143D01*
X15147619Y-18535143D01*
X15166667Y-18544667D01*
X15176190Y-18563714D01*
X15176190Y-18668476D01*
X15271428Y-18668476D02*
X15271428Y-18535143D01*
X15271428Y-18554190D02*
X15280952Y-18544667D01*
X15300000Y-18535143D01*
X15328571Y-18535143D01*
X15347619Y-18544667D01*
X15357143Y-18563714D01*
X15357143Y-18668476D01*
X15357143Y-18563714D02*
X15366667Y-18544667D01*
X15385714Y-18535143D01*
X15414286Y-18535143D01*
X15433333Y-18544667D01*
X15442857Y-18563714D01*
X15442857Y-18668476D01*
X15833333Y-18458952D02*
X15661905Y-18716095D01*
X16090476Y-18468476D02*
X16109524Y-18468476D01*
X16128571Y-18478000D01*
X16138095Y-18487524D01*
X16147619Y-18506571D01*
X16157143Y-18544667D01*
X16157143Y-18592286D01*
X16147619Y-18630381D01*
X16138095Y-18649429D01*
X16128571Y-18658952D01*
X16109524Y-18668476D01*
X16090476Y-18668476D01*
X16071428Y-18658952D01*
X16061905Y-18649429D01*
X16052381Y-18630381D01*
X16042857Y-18592286D01*
X16042857Y-18544667D01*
X16052381Y-18506571D01*
X16061905Y-18487524D01*
X16071428Y-18478000D01*
X16090476Y-18468476D01*
X16242857Y-18649429D02*
X16252381Y-18658952D01*
X16242857Y-18668476D01*
X16233333Y-18658952D01*
X16242857Y-18649429D01*
X16242857Y-18668476D01*
X16376190Y-18468476D02*
X16395238Y-18468476D01*
X16414286Y-18478000D01*
X16423809Y-18487524D01*
X16433333Y-18506571D01*
X16442857Y-18544667D01*
X16442857Y-18592286D01*
X16433333Y-18630381D01*
X16423809Y-18649429D01*
X16414286Y-18658952D01*
X16395238Y-18668476D01*
X16376190Y-18668476D01*
X16357143Y-18658952D01*
X16347619Y-18649429D01*
X16338095Y-18630381D01*
X16328571Y-18592286D01*
X16328571Y-18544667D01*
X16338095Y-18506571D01*
X16347619Y-18487524D01*
X16357143Y-18478000D01*
X16376190Y-18468476D01*
X16509524Y-18468476D02*
X16633333Y-18468476D01*
X16566667Y-18544667D01*
X16595238Y-18544667D01*
X16614286Y-18554190D01*
X16623809Y-18563714D01*
X16633333Y-18582762D01*
X16633333Y-18630381D01*
X16623809Y-18649429D01*
X16614286Y-18658952D01*
X16595238Y-18668476D01*
X16538095Y-18668476D01*
X16519048Y-18658952D01*
X16509524Y-18649429D01*
X16728571Y-18668476D02*
X16766667Y-18668476D01*
X16785714Y-18658952D01*
X16795238Y-18649429D01*
X16814286Y-18620857D01*
X16823810Y-18582762D01*
X16823810Y-18506571D01*
X16814286Y-18487524D01*
X16804762Y-18478000D01*
X16785714Y-18468476D01*
X16747619Y-18468476D01*
X16728571Y-18478000D01*
X16719048Y-18487524D01*
X16709524Y-18506571D01*
X16709524Y-18554190D01*
X16719048Y-18573238D01*
X16728571Y-18582762D01*
X16747619Y-18592286D01*
X16785714Y-18592286D01*
X16804762Y-18582762D01*
X16814286Y-18573238D01*
X16823810Y-18554190D01*
X16995238Y-18535143D02*
X16995238Y-18668476D01*
X16947619Y-18458952D02*
X16900000Y-18601810D01*
X17023810Y-18601810D01*
X17090476Y-18468476D02*
X17090476Y-18506571D01*
X17166667Y-18468476D02*
X17166667Y-18506571D01*
X17461905Y-18744667D02*
X17452381Y-18735143D01*
X17433333Y-18706571D01*
X17423810Y-18687524D01*
X17414286Y-18658952D01*
X17404762Y-18611333D01*
X17404762Y-18573238D01*
X17414286Y-18525619D01*
X17423810Y-18497048D01*
X17433333Y-18478000D01*
X17452381Y-18449429D01*
X17461905Y-18439905D01*
X17528571Y-18487524D02*
X17538095Y-18478000D01*
X17557143Y-18468476D01*
X17604762Y-18468476D01*
X17623810Y-18478000D01*
X17633333Y-18487524D01*
X17642857Y-18506571D01*
X17642857Y-18525619D01*
X17633333Y-18554190D01*
X17519048Y-18668476D01*
X17642857Y-18668476D01*
X17880952Y-18668476D02*
X17880952Y-18468476D01*
X17966667Y-18668476D02*
X17966667Y-18563714D01*
X17957143Y-18544667D01*
X17938095Y-18535143D01*
X17909524Y-18535143D01*
X17890476Y-18544667D01*
X17880952Y-18554190D01*
X18090476Y-18668476D02*
X18071429Y-18658952D01*
X18061905Y-18649429D01*
X18052381Y-18630381D01*
X18052381Y-18573238D01*
X18061905Y-18554190D01*
X18071429Y-18544667D01*
X18090476Y-18535143D01*
X18119048Y-18535143D01*
X18138095Y-18544667D01*
X18147619Y-18554190D01*
X18157143Y-18573238D01*
X18157143Y-18630381D01*
X18147619Y-18649429D01*
X18138095Y-18658952D01*
X18119048Y-18668476D01*
X18090476Y-18668476D01*
X18271429Y-18668476D02*
X18252381Y-18658952D01*
X18242857Y-18639905D01*
X18242857Y-18468476D01*
X18423810Y-18658952D02*
X18404762Y-18668476D01*
X18366667Y-18668476D01*
X18347619Y-18658952D01*
X18338095Y-18639905D01*
X18338095Y-18563714D01*
X18347619Y-18544667D01*
X18366667Y-18535143D01*
X18404762Y-18535143D01*
X18423810Y-18544667D01*
X18433333Y-18563714D01*
X18433333Y-18582762D01*
X18338095Y-18601810D01*
X18509524Y-18658952D02*
X18528571Y-18668476D01*
X18566667Y-18668476D01*
X18585714Y-18658952D01*
X18595238Y-18639905D01*
X18595238Y-18630381D01*
X18585714Y-18611333D01*
X18566667Y-18601810D01*
X18538095Y-18601810D01*
X18519048Y-18592286D01*
X18509524Y-18573238D01*
X18509524Y-18563714D01*
X18519048Y-18544667D01*
X18538095Y-18535143D01*
X18566667Y-18535143D01*
X18585714Y-18544667D01*
X18661905Y-18744667D02*
X18671429Y-18735143D01*
X18690476Y-18706571D01*
X18700000Y-18687524D01*
X18709524Y-18658952D01*
X18719048Y-18611333D01*
X18719048Y-18573238D01*
X18709524Y-18525619D01*
X18700000Y-18497048D01*
X18690476Y-18478000D01*
X18671429Y-18449429D01*
X18661905Y-18439905D01*
D14*
X13862908Y-18907408D02*
X13862908Y-18776592D01*
X13732092Y-18776592D01*
X13732092Y-18907408D01*
X13862908Y-18907408D01*
D10*
X14252381Y-18932476D02*
X14138095Y-18932476D01*
X14195238Y-18932476D02*
X14195238Y-18732476D01*
X14176190Y-18761048D01*
X14157143Y-18780095D01*
X14138095Y-18789619D01*
X14338095Y-18913429D02*
X14347619Y-18922952D01*
X14338095Y-18932476D01*
X14328571Y-18922952D01*
X14338095Y-18913429D01*
X14338095Y-18932476D01*
X14461905Y-18818190D02*
X14442857Y-18808667D01*
X14433333Y-18799143D01*
X14423809Y-18780095D01*
X14423809Y-18770571D01*
X14433333Y-18751524D01*
X14442857Y-18742000D01*
X14461905Y-18732476D01*
X14500000Y-18732476D01*
X14519048Y-18742000D01*
X14528571Y-18751524D01*
X14538095Y-18770571D01*
X14538095Y-18780095D01*
X14528571Y-18799143D01*
X14519048Y-18808667D01*
X14500000Y-18818190D01*
X14461905Y-18818190D01*
X14442857Y-18827714D01*
X14433333Y-18837238D01*
X14423809Y-18856286D01*
X14423809Y-18894381D01*
X14433333Y-18913429D01*
X14442857Y-18922952D01*
X14461905Y-18932476D01*
X14500000Y-18932476D01*
X14519048Y-18922952D01*
X14528571Y-18913429D01*
X14538095Y-18894381D01*
X14538095Y-18856286D01*
X14528571Y-18837238D01*
X14519048Y-18827714D01*
X14500000Y-18818190D01*
X14719048Y-18732476D02*
X14623809Y-18732476D01*
X14614286Y-18827714D01*
X14623809Y-18818190D01*
X14642857Y-18808667D01*
X14690476Y-18808667D01*
X14709524Y-18818190D01*
X14719048Y-18827714D01*
X14728571Y-18846762D01*
X14728571Y-18894381D01*
X14719048Y-18913429D01*
X14709524Y-18922952D01*
X14690476Y-18932476D01*
X14642857Y-18932476D01*
X14623809Y-18922952D01*
X14614286Y-18913429D01*
X14852381Y-18732476D02*
X14871428Y-18732476D01*
X14890476Y-18742000D01*
X14900000Y-18751524D01*
X14909524Y-18770571D01*
X14919048Y-18808667D01*
X14919048Y-18856286D01*
X14909524Y-18894381D01*
X14900000Y-18913429D01*
X14890476Y-18922952D01*
X14871428Y-18932476D01*
X14852381Y-18932476D01*
X14833333Y-18922952D01*
X14823809Y-18913429D01*
X14814286Y-18894381D01*
X14804762Y-18856286D01*
X14804762Y-18808667D01*
X14814286Y-18770571D01*
X14823809Y-18751524D01*
X14833333Y-18742000D01*
X14852381Y-18732476D01*
X15004762Y-18932476D02*
X15004762Y-18799143D01*
X15004762Y-18818190D02*
X15014286Y-18808667D01*
X15033333Y-18799143D01*
X15061905Y-18799143D01*
X15080952Y-18808667D01*
X15090476Y-18827714D01*
X15090476Y-18932476D01*
X15090476Y-18827714D02*
X15100000Y-18808667D01*
X15119048Y-18799143D01*
X15147619Y-18799143D01*
X15166667Y-18808667D01*
X15176190Y-18827714D01*
X15176190Y-18932476D01*
X15271428Y-18932476D02*
X15271428Y-18799143D01*
X15271428Y-18818190D02*
X15280952Y-18808667D01*
X15300000Y-18799143D01*
X15328571Y-18799143D01*
X15347619Y-18808667D01*
X15357143Y-18827714D01*
X15357143Y-18932476D01*
X15357143Y-18827714D02*
X15366667Y-18808667D01*
X15385714Y-18799143D01*
X15414286Y-18799143D01*
X15433333Y-18808667D01*
X15442857Y-18827714D01*
X15442857Y-18932476D01*
X15833333Y-18722952D02*
X15661905Y-18980095D01*
X16090476Y-18732476D02*
X16109524Y-18732476D01*
X16128571Y-18742000D01*
X16138095Y-18751524D01*
X16147619Y-18770571D01*
X16157143Y-18808667D01*
X16157143Y-18856286D01*
X16147619Y-18894381D01*
X16138095Y-18913429D01*
X16128571Y-18922952D01*
X16109524Y-18932476D01*
X16090476Y-18932476D01*
X16071428Y-18922952D01*
X16061905Y-18913429D01*
X16052381Y-18894381D01*
X16042857Y-18856286D01*
X16042857Y-18808667D01*
X16052381Y-18770571D01*
X16061905Y-18751524D01*
X16071428Y-18742000D01*
X16090476Y-18732476D01*
X16242857Y-18913429D02*
X16252381Y-18922952D01*
X16242857Y-18932476D01*
X16233333Y-18922952D01*
X16242857Y-18913429D01*
X16242857Y-18932476D01*
X16376190Y-18732476D02*
X16395238Y-18732476D01*
X16414286Y-18742000D01*
X16423809Y-18751524D01*
X16433333Y-18770571D01*
X16442857Y-18808667D01*
X16442857Y-18856286D01*
X16433333Y-18894381D01*
X16423809Y-18913429D01*
X16414286Y-18922952D01*
X16395238Y-18932476D01*
X16376190Y-18932476D01*
X16357143Y-18922952D01*
X16347619Y-18913429D01*
X16338095Y-18894381D01*
X16328571Y-18856286D01*
X16328571Y-18808667D01*
X16338095Y-18770571D01*
X16347619Y-18751524D01*
X16357143Y-18742000D01*
X16376190Y-18732476D01*
X16509524Y-18732476D02*
X16642857Y-18732476D01*
X16557143Y-18932476D01*
X16709524Y-18751524D02*
X16719048Y-18742000D01*
X16738095Y-18732476D01*
X16785714Y-18732476D01*
X16804762Y-18742000D01*
X16814286Y-18751524D01*
X16823810Y-18770571D01*
X16823810Y-18789619D01*
X16814286Y-18818190D01*
X16700000Y-18932476D01*
X16823810Y-18932476D01*
X16938095Y-18818190D02*
X16919048Y-18808667D01*
X16909524Y-18799143D01*
X16900000Y-18780095D01*
X16900000Y-18770571D01*
X16909524Y-18751524D01*
X16919048Y-18742000D01*
X16938095Y-18732476D01*
X16976190Y-18732476D01*
X16995238Y-18742000D01*
X17004762Y-18751524D01*
X17014286Y-18770571D01*
X17014286Y-18780095D01*
X17004762Y-18799143D01*
X16995238Y-18808667D01*
X16976190Y-18818190D01*
X16938095Y-18818190D01*
X16919048Y-18827714D01*
X16909524Y-18837238D01*
X16900000Y-18856286D01*
X16900000Y-18894381D01*
X16909524Y-18913429D01*
X16919048Y-18922952D01*
X16938095Y-18932476D01*
X16976190Y-18932476D01*
X16995238Y-18922952D01*
X17004762Y-18913429D01*
X17014286Y-18894381D01*
X17014286Y-18856286D01*
X17004762Y-18837238D01*
X16995238Y-18827714D01*
X16976190Y-18818190D01*
X17090476Y-18732476D02*
X17090476Y-18770571D01*
X17166667Y-18732476D02*
X17166667Y-18770571D01*
X17461905Y-19008667D02*
X17452381Y-18999143D01*
X17433333Y-18970571D01*
X17423810Y-18951524D01*
X17414286Y-18922952D01*
X17404762Y-18875333D01*
X17404762Y-18837238D01*
X17414286Y-18789619D01*
X17423810Y-18761048D01*
X17433333Y-18742000D01*
X17452381Y-18713429D01*
X17461905Y-18703905D01*
X17528571Y-18751524D02*
X17538095Y-18742000D01*
X17557143Y-18732476D01*
X17604762Y-18732476D01*
X17623810Y-18742000D01*
X17633333Y-18751524D01*
X17642857Y-18770571D01*
X17642857Y-18789619D01*
X17633333Y-18818190D01*
X17519048Y-18932476D01*
X17642857Y-18932476D01*
X17880952Y-18932476D02*
X17880952Y-18732476D01*
X17966667Y-18932476D02*
X17966667Y-18827714D01*
X17957143Y-18808667D01*
X17938095Y-18799143D01*
X17909524Y-18799143D01*
X17890476Y-18808667D01*
X17880952Y-18818190D01*
X18090476Y-18932476D02*
X18071429Y-18922952D01*
X18061905Y-18913429D01*
X18052381Y-18894381D01*
X18052381Y-18837238D01*
X18061905Y-18818190D01*
X18071429Y-18808667D01*
X18090476Y-18799143D01*
X18119048Y-18799143D01*
X18138095Y-18808667D01*
X18147619Y-18818190D01*
X18157143Y-18837238D01*
X18157143Y-18894381D01*
X18147619Y-18913429D01*
X18138095Y-18922952D01*
X18119048Y-18932476D01*
X18090476Y-18932476D01*
X18271429Y-18932476D02*
X18252381Y-18922952D01*
X18242857Y-18903905D01*
X18242857Y-18732476D01*
X18423810Y-18922952D02*
X18404762Y-18932476D01*
X18366667Y-18932476D01*
X18347619Y-18922952D01*
X18338095Y-18903905D01*
X18338095Y-18827714D01*
X18347619Y-18808667D01*
X18366667Y-18799143D01*
X18404762Y-18799143D01*
X18423810Y-18808667D01*
X18433333Y-18827714D01*
X18433333Y-18846762D01*
X18338095Y-18865810D01*
X18509524Y-18922952D02*
X18528571Y-18932476D01*
X18566667Y-18932476D01*
X18585714Y-18922952D01*
X18595238Y-18903905D01*
X18595238Y-18894381D01*
X18585714Y-18875333D01*
X18566667Y-18865810D01*
X18538095Y-18865810D01*
X18519048Y-18856286D01*
X18509524Y-18837238D01*
X18509524Y-18827714D01*
X18519048Y-18808667D01*
X18538095Y-18799143D01*
X18566667Y-18799143D01*
X18585714Y-18808667D01*
X18661905Y-19008667D02*
X18671429Y-18999143D01*
X18690476Y-18970571D01*
X18700000Y-18951524D01*
X18709524Y-18922952D01*
X18719048Y-18875333D01*
X18719048Y-18837238D01*
X18709524Y-18789619D01*
X18700000Y-18761048D01*
X18690476Y-18742000D01*
X18671429Y-18713429D01*
X18661905Y-18703905D01*
M02*
