%TF.GenerationSoftware,KiCad,Pcbnew,6.0.11-2627ca5db0~126~ubuntu22.04.1*%
%TF.CreationDate,2023-02-10T03:37:06+05:30*%
%TF.ProjectId,thermal_sampler,74686572-6d61-46c5-9f73-616d706c6572,rev?*%
%TF.SameCoordinates,Original*%
%TF.FileFunction,Legend,Top*%
%TF.FilePolarity,Positive*%
%FSLAX46Y46*%
G04 Gerber Fmt 4.6, Leading zero omitted, Abs format (unit mm)*
G04 Created by KiCad (PCBNEW 6.0.11-2627ca5db0~126~ubuntu22.04.1) date 2023-02-10 03:37:06*
%MOMM*%
%LPD*%
G01*
G04 APERTURE LIST*
%ADD10C,0.160000*%
G04 APERTURE END LIST*
D10*
X167934761Y-138652702D02*
X167965714Y-138621750D01*
X168027619Y-138590797D01*
X168182380Y-138590797D01*
X168244285Y-138621750D01*
X168275238Y-138652702D01*
X168306190Y-138714607D01*
X168306190Y-138776511D01*
X168275238Y-138869369D01*
X167903809Y-139240797D01*
X168306190Y-139240797D01*
X168615714Y-139240797D02*
X168739523Y-139240797D01*
X168801428Y-139209845D01*
X168832380Y-139178892D01*
X168894285Y-139086035D01*
X168925238Y-138962226D01*
X168925238Y-138714607D01*
X168894285Y-138652702D01*
X168863333Y-138621750D01*
X168801428Y-138590797D01*
X168677619Y-138590797D01*
X168615714Y-138621750D01*
X168584761Y-138652702D01*
X168553809Y-138714607D01*
X168553809Y-138869369D01*
X168584761Y-138931273D01*
X168615714Y-138962226D01*
X168677619Y-138993178D01*
X168801428Y-138993178D01*
X168863333Y-138962226D01*
X168894285Y-138931273D01*
X168925238Y-138869369D01*
X167671666Y-140287297D02*
X167671666Y-139637297D01*
X167919285Y-139637297D01*
X167981190Y-139668250D01*
X168012142Y-139699202D01*
X168043095Y-139761107D01*
X168043095Y-139853964D01*
X168012142Y-139915869D01*
X167981190Y-139946821D01*
X167919285Y-139977773D01*
X167671666Y-139977773D01*
X168290714Y-140101583D02*
X168600238Y-140101583D01*
X168228809Y-140287297D02*
X168445476Y-139637297D01*
X168662142Y-140287297D01*
X168909761Y-140287297D02*
X169033571Y-140287297D01*
X169095476Y-140256345D01*
X169126428Y-140225392D01*
X169188333Y-140132535D01*
X169219285Y-140008726D01*
X169219285Y-139761107D01*
X169188333Y-139699202D01*
X169157380Y-139668250D01*
X169095476Y-139637297D01*
X168971666Y-139637297D01*
X168909761Y-139668250D01*
X168878809Y-139699202D01*
X168847857Y-139761107D01*
X168847857Y-139915869D01*
X168878809Y-139977773D01*
X168909761Y-140008726D01*
X168971666Y-140039678D01*
X169095476Y-140039678D01*
X169157380Y-140008726D01*
X169188333Y-139977773D01*
X169219285Y-139915869D01*
X148373596Y-153600555D02*
X148342644Y-153631508D01*
X148249787Y-153662460D01*
X148187882Y-153662460D01*
X148095025Y-153631508D01*
X148033120Y-153569603D01*
X148002168Y-153507698D01*
X147971215Y-153383889D01*
X147971215Y-153291032D01*
X148002168Y-153167222D01*
X148033120Y-153105317D01*
X148095025Y-153043413D01*
X148187882Y-153012460D01*
X148249787Y-153012460D01*
X148342644Y-153043413D01*
X148373596Y-153074365D01*
X148652168Y-153321984D02*
X148868834Y-153321984D01*
X148961692Y-153662460D02*
X148652168Y-153662460D01*
X148652168Y-153012460D01*
X148961692Y-153012460D01*
X151082794Y-154122870D02*
X150866128Y-153813346D01*
X150711366Y-154122870D02*
X150711366Y-153472870D01*
X150958985Y-153472870D01*
X151020890Y-153503823D01*
X151051842Y-153534775D01*
X151082794Y-153596680D01*
X151082794Y-153689537D01*
X151051842Y-153751442D01*
X151020890Y-153782394D01*
X150958985Y-153813346D01*
X150711366Y-153813346D01*
X151330414Y-153937156D02*
X151639937Y-153937156D01*
X151268509Y-154122870D02*
X151485175Y-153472870D01*
X151701842Y-154122870D01*
X151918509Y-154122870D02*
X151918509Y-153472870D01*
X152073271Y-153472870D01*
X152166128Y-153503823D01*
X152228033Y-153565727D01*
X152258985Y-153627632D01*
X152289937Y-153751442D01*
X152289937Y-153844299D01*
X152258985Y-153968108D01*
X152228033Y-154030013D01*
X152166128Y-154091918D01*
X152073271Y-154122870D01*
X151918509Y-154122870D01*
X152568509Y-154122870D02*
X152568509Y-153472870D01*
X153001842Y-153472870D02*
X153125652Y-153472870D01*
X153187556Y-153503823D01*
X153249461Y-153565727D01*
X153280414Y-153689537D01*
X153280414Y-153906203D01*
X153249461Y-154030013D01*
X153187556Y-154091918D01*
X153125652Y-154122870D01*
X153001842Y-154122870D01*
X152939937Y-154091918D01*
X152878033Y-154030013D01*
X152847080Y-153906203D01*
X152847080Y-153689537D01*
X152878033Y-153565727D01*
X152939937Y-153503823D01*
X153001842Y-153472870D01*
X151175652Y-154519370D02*
X151578033Y-154519370D01*
X151361366Y-154766989D01*
X151454223Y-154766989D01*
X151516128Y-154797942D01*
X151547080Y-154828894D01*
X151578033Y-154890799D01*
X151578033Y-155045561D01*
X151547080Y-155107465D01*
X151516128Y-155138418D01*
X151454223Y-155169370D01*
X151268509Y-155169370D01*
X151206604Y-155138418D01*
X151175652Y-155107465D01*
X151763747Y-154519370D02*
X151980414Y-155169370D01*
X152197080Y-154519370D01*
X152351842Y-154519370D02*
X152754223Y-154519370D01*
X152537556Y-154766989D01*
X152630414Y-154766989D01*
X152692318Y-154797942D01*
X152723271Y-154828894D01*
X152754223Y-154890799D01*
X152754223Y-155045561D01*
X152723271Y-155107465D01*
X152692318Y-155138418D01*
X152630414Y-155169370D01*
X152444699Y-155169370D01*
X152382794Y-155138418D01*
X152351842Y-155107465D01*
X168254761Y-162675000D02*
X168192857Y-162644047D01*
X168100000Y-162644047D01*
X168007142Y-162675000D01*
X167945238Y-162736904D01*
X167914285Y-162798809D01*
X167883333Y-162922619D01*
X167883333Y-163015476D01*
X167914285Y-163139285D01*
X167945238Y-163201190D01*
X168007142Y-163263095D01*
X168100000Y-163294047D01*
X168161904Y-163294047D01*
X168254761Y-163263095D01*
X168285714Y-163232142D01*
X168285714Y-163015476D01*
X168161904Y-163015476D01*
X168564285Y-163294047D02*
X168564285Y-162644047D01*
X168935714Y-163294047D01*
X168935714Y-162644047D01*
X169245238Y-163294047D02*
X169245238Y-162644047D01*
X169400000Y-162644047D01*
X169492857Y-162675000D01*
X169554761Y-162736904D01*
X169585714Y-162798809D01*
X169616666Y-162922619D01*
X169616666Y-163015476D01*
X169585714Y-163139285D01*
X169554761Y-163201190D01*
X169492857Y-163263095D01*
X169400000Y-163294047D01*
X169245238Y-163294047D01*
X171363809Y-142264047D02*
X171766190Y-142264047D01*
X171549523Y-142511666D01*
X171642380Y-142511666D01*
X171704285Y-142542619D01*
X171735238Y-142573571D01*
X171766190Y-142635476D01*
X171766190Y-142790238D01*
X171735238Y-142852142D01*
X171704285Y-142883095D01*
X171642380Y-142914047D01*
X171456666Y-142914047D01*
X171394761Y-142883095D01*
X171363809Y-142852142D01*
X171982857Y-142264047D02*
X172385238Y-142264047D01*
X172168571Y-142511666D01*
X172261428Y-142511666D01*
X172323333Y-142542619D01*
X172354285Y-142573571D01*
X172385238Y-142635476D01*
X172385238Y-142790238D01*
X172354285Y-142852142D01*
X172323333Y-142883095D01*
X172261428Y-142914047D01*
X172075714Y-142914047D01*
X172013809Y-142883095D01*
X171982857Y-142852142D01*
X167012941Y-171689074D02*
X167012941Y-171039074D01*
X167167702Y-171039074D01*
X167260560Y-171070027D01*
X167322464Y-171131931D01*
X167353417Y-171193836D01*
X167384369Y-171317646D01*
X167384369Y-171410503D01*
X167353417Y-171534312D01*
X167322464Y-171596217D01*
X167260560Y-171658122D01*
X167167702Y-171689074D01*
X167012941Y-171689074D01*
X167662941Y-171689074D02*
X167662941Y-171039074D01*
X168096274Y-171039074D02*
X168220083Y-171039074D01*
X168281988Y-171070027D01*
X168343893Y-171131931D01*
X168374845Y-171255741D01*
X168374845Y-171472407D01*
X168343893Y-171596217D01*
X168281988Y-171658122D01*
X168220083Y-171689074D01*
X168096274Y-171689074D01*
X168034369Y-171658122D01*
X167972464Y-171596217D01*
X167941512Y-171472407D01*
X167941512Y-171255741D01*
X167972464Y-171131931D01*
X168034369Y-171070027D01*
X168096274Y-171039074D01*
X168993893Y-171689074D02*
X168622464Y-171689074D01*
X168808179Y-171689074D02*
X168808179Y-171039074D01*
X168746274Y-171131931D01*
X168684369Y-171193836D01*
X168622464Y-171224788D01*
X160456190Y-123583095D02*
X160549047Y-123614047D01*
X160703809Y-123614047D01*
X160765714Y-123583095D01*
X160796666Y-123552142D01*
X160827619Y-123490238D01*
X160827619Y-123428333D01*
X160796666Y-123366428D01*
X160765714Y-123335476D01*
X160703809Y-123304523D01*
X160580000Y-123273571D01*
X160518095Y-123242619D01*
X160487142Y-123211666D01*
X160456190Y-123149761D01*
X160456190Y-123087857D01*
X160487142Y-123025952D01*
X160518095Y-122995000D01*
X160580000Y-122964047D01*
X160734761Y-122964047D01*
X160827619Y-122995000D01*
X161477619Y-123552142D02*
X161446666Y-123583095D01*
X161353809Y-123614047D01*
X161291904Y-123614047D01*
X161199047Y-123583095D01*
X161137142Y-123521190D01*
X161106190Y-123459285D01*
X161075238Y-123335476D01*
X161075238Y-123242619D01*
X161106190Y-123118809D01*
X161137142Y-123056904D01*
X161199047Y-122995000D01*
X161291904Y-122964047D01*
X161353809Y-122964047D01*
X161446666Y-122995000D01*
X161477619Y-123025952D01*
X162065714Y-123614047D02*
X161756190Y-123614047D01*
X161756190Y-122964047D01*
X169853095Y-135383809D02*
X169884047Y-135290952D01*
X169884047Y-135136190D01*
X169853095Y-135074285D01*
X169822142Y-135043333D01*
X169760238Y-135012380D01*
X169698333Y-135012380D01*
X169636428Y-135043333D01*
X169605476Y-135074285D01*
X169574523Y-135136190D01*
X169543571Y-135260000D01*
X169512619Y-135321904D01*
X169481666Y-135352857D01*
X169419761Y-135383809D01*
X169357857Y-135383809D01*
X169295952Y-135352857D01*
X169265000Y-135321904D01*
X169234047Y-135260000D01*
X169234047Y-135105238D01*
X169265000Y-135012380D01*
X169822142Y-134362380D02*
X169853095Y-134393333D01*
X169884047Y-134486190D01*
X169884047Y-134548095D01*
X169853095Y-134640952D01*
X169791190Y-134702857D01*
X169729285Y-134733809D01*
X169605476Y-134764761D01*
X169512619Y-134764761D01*
X169388809Y-134733809D01*
X169326904Y-134702857D01*
X169265000Y-134640952D01*
X169234047Y-134548095D01*
X169234047Y-134486190D01*
X169265000Y-134393333D01*
X169295952Y-134362380D01*
X169884047Y-133774285D02*
X169884047Y-134083809D01*
X169234047Y-134083809D01*
X152884285Y-133200714D02*
X152884285Y-133634047D01*
X152729523Y-132953095D02*
X152574761Y-133417380D01*
X152977142Y-133417380D01*
X153162857Y-132984047D02*
X153596190Y-132984047D01*
X153317619Y-133634047D01*
X164003809Y-134514047D02*
X164406190Y-134514047D01*
X164189523Y-134761666D01*
X164282380Y-134761666D01*
X164344285Y-134792619D01*
X164375238Y-134823571D01*
X164406190Y-134885476D01*
X164406190Y-135040238D01*
X164375238Y-135102142D01*
X164344285Y-135133095D01*
X164282380Y-135164047D01*
X164096666Y-135164047D01*
X164034761Y-135133095D01*
X164003809Y-135102142D01*
X164622857Y-134514047D02*
X165056190Y-134514047D01*
X164777619Y-135164047D01*
X140270852Y-153687929D02*
X140270852Y-153037929D01*
X140951805Y-153687929D02*
X140735138Y-153378405D01*
X140580376Y-153687929D02*
X140580376Y-153037929D01*
X140827995Y-153037929D01*
X140889900Y-153068882D01*
X140920852Y-153099834D01*
X140951805Y-153161739D01*
X140951805Y-153254596D01*
X140920852Y-153316501D01*
X140889900Y-153347453D01*
X140827995Y-153378405D01*
X140580376Y-153378405D01*
X141663709Y-153749834D02*
X141601805Y-153718882D01*
X141539900Y-153656977D01*
X141447043Y-153564120D01*
X141385138Y-153533167D01*
X141323233Y-153533167D01*
X141354186Y-153687929D02*
X141292281Y-153656977D01*
X141230376Y-153595072D01*
X141199424Y-153471262D01*
X141199424Y-153254596D01*
X141230376Y-153130786D01*
X141292281Y-153068882D01*
X141354186Y-153037929D01*
X141477995Y-153037929D01*
X141539900Y-153068882D01*
X141601805Y-153130786D01*
X141632757Y-153254596D01*
X141632757Y-153471262D01*
X141601805Y-153595072D01*
X141539900Y-153656977D01*
X141477995Y-153687929D01*
X141354186Y-153687929D01*
X165663809Y-143490797D02*
X166066190Y-143490797D01*
X165849523Y-143738416D01*
X165942380Y-143738416D01*
X166004285Y-143769369D01*
X166035238Y-143800321D01*
X166066190Y-143862226D01*
X166066190Y-144016988D01*
X166035238Y-144078892D01*
X166004285Y-144109845D01*
X165942380Y-144140797D01*
X165756666Y-144140797D01*
X165694761Y-144109845D01*
X165663809Y-144078892D01*
X166685238Y-144140797D02*
X166313809Y-144140797D01*
X166499523Y-144140797D02*
X166499523Y-143490797D01*
X166437619Y-143583654D01*
X166375714Y-143645559D01*
X166313809Y-143676511D01*
X165385238Y-145187297D02*
X165385238Y-144537297D01*
X165632857Y-144537297D01*
X165694761Y-144568250D01*
X165725714Y-144599202D01*
X165756666Y-144661107D01*
X165756666Y-144753964D01*
X165725714Y-144815869D01*
X165694761Y-144846821D01*
X165632857Y-144877773D01*
X165385238Y-144877773D01*
X166406666Y-145125392D02*
X166375714Y-145156345D01*
X166282857Y-145187297D01*
X166220952Y-145187297D01*
X166128095Y-145156345D01*
X166066190Y-145094440D01*
X166035238Y-145032535D01*
X166004285Y-144908726D01*
X166004285Y-144815869D01*
X166035238Y-144692059D01*
X166066190Y-144630154D01*
X166128095Y-144568250D01*
X166220952Y-144537297D01*
X166282857Y-144537297D01*
X166375714Y-144568250D01*
X166406666Y-144599202D01*
X166623333Y-144537297D02*
X167056666Y-144537297D01*
X166778095Y-145187297D01*
X154885000Y-151944047D02*
X154885000Y-151294047D01*
X155039761Y-151294047D01*
X155132619Y-151325000D01*
X155194523Y-151386904D01*
X155225476Y-151448809D01*
X155256428Y-151572619D01*
X155256428Y-151665476D01*
X155225476Y-151789285D01*
X155194523Y-151851190D01*
X155132619Y-151913095D01*
X155039761Y-151944047D01*
X154885000Y-151944047D01*
X155535000Y-151944047D02*
X155535000Y-151294047D01*
X155968333Y-151294047D02*
X156092142Y-151294047D01*
X156154047Y-151325000D01*
X156215952Y-151386904D01*
X156246904Y-151510714D01*
X156246904Y-151727380D01*
X156215952Y-151851190D01*
X156154047Y-151913095D01*
X156092142Y-151944047D01*
X155968333Y-151944047D01*
X155906428Y-151913095D01*
X155844523Y-151851190D01*
X155813571Y-151727380D01*
X155813571Y-151510714D01*
X155844523Y-151386904D01*
X155906428Y-151325000D01*
X155968333Y-151294047D01*
X156835000Y-151294047D02*
X156525476Y-151294047D01*
X156494523Y-151603571D01*
X156525476Y-151572619D01*
X156587380Y-151541666D01*
X156742142Y-151541666D01*
X156804047Y-151572619D01*
X156835000Y-151603571D01*
X156865952Y-151665476D01*
X156865952Y-151820238D01*
X156835000Y-151882142D01*
X156804047Y-151913095D01*
X156742142Y-151944047D01*
X156587380Y-151944047D01*
X156525476Y-151913095D01*
X156494523Y-151882142D01*
X142983829Y-153641237D02*
X142983829Y-152991237D01*
X143200496Y-153455523D01*
X143417162Y-152991237D01*
X143417162Y-153641237D01*
X143850496Y-152991237D02*
X143974305Y-152991237D01*
X144036210Y-153022190D01*
X144098115Y-153084094D01*
X144129067Y-153207904D01*
X144129067Y-153424570D01*
X144098115Y-153548380D01*
X144036210Y-153610285D01*
X143974305Y-153641237D01*
X143850496Y-153641237D01*
X143788591Y-153610285D01*
X143726686Y-153548380D01*
X143695734Y-153424570D01*
X143695734Y-153207904D01*
X143726686Y-153084094D01*
X143788591Y-153022190D01*
X143850496Y-152991237D01*
X144376686Y-153610285D02*
X144469543Y-153641237D01*
X144624305Y-153641237D01*
X144686210Y-153610285D01*
X144717162Y-153579332D01*
X144748115Y-153517428D01*
X144748115Y-153455523D01*
X144717162Y-153393618D01*
X144686210Y-153362666D01*
X144624305Y-153331713D01*
X144500496Y-153300761D01*
X144438591Y-153269809D01*
X144407638Y-153238856D01*
X144376686Y-153176951D01*
X144376686Y-153115047D01*
X144407638Y-153053142D01*
X144438591Y-153022190D01*
X144500496Y-152991237D01*
X144655258Y-152991237D01*
X144748115Y-153022190D01*
X145026686Y-153641237D02*
X145026686Y-152991237D01*
X158999347Y-171692587D02*
X158999347Y-171042587D01*
X159154108Y-171042587D01*
X159246966Y-171073540D01*
X159308870Y-171135444D01*
X159339823Y-171197349D01*
X159370775Y-171321159D01*
X159370775Y-171414016D01*
X159339823Y-171537825D01*
X159308870Y-171599730D01*
X159246966Y-171661635D01*
X159154108Y-171692587D01*
X158999347Y-171692587D01*
X159649347Y-171692587D02*
X159649347Y-171042587D01*
X160082680Y-171042587D02*
X160206489Y-171042587D01*
X160268394Y-171073540D01*
X160330299Y-171135444D01*
X160361251Y-171259254D01*
X160361251Y-171475920D01*
X160330299Y-171599730D01*
X160268394Y-171661635D01*
X160206489Y-171692587D01*
X160082680Y-171692587D01*
X160020775Y-171661635D01*
X159958870Y-171599730D01*
X159927918Y-171475920D01*
X159927918Y-171259254D01*
X159958870Y-171135444D01*
X160020775Y-171073540D01*
X160082680Y-171042587D01*
X160577918Y-171042587D02*
X160980299Y-171042587D01*
X160763632Y-171290206D01*
X160856489Y-171290206D01*
X160918394Y-171321159D01*
X160949347Y-171352111D01*
X160980299Y-171414016D01*
X160980299Y-171568778D01*
X160949347Y-171630682D01*
X160918394Y-171661635D01*
X160856489Y-171692587D01*
X160670775Y-171692587D01*
X160608870Y-171661635D01*
X160577918Y-171630682D01*
X161904285Y-132280714D02*
X161904285Y-132714047D01*
X161749523Y-132033095D02*
X161594761Y-132497380D01*
X161997142Y-132497380D01*
X162213809Y-132125952D02*
X162244761Y-132095000D01*
X162306666Y-132064047D01*
X162461428Y-132064047D01*
X162523333Y-132095000D01*
X162554285Y-132125952D01*
X162585238Y-132187857D01*
X162585238Y-132249761D01*
X162554285Y-132342619D01*
X162182857Y-132714047D01*
X162585238Y-132714047D01*
X154484285Y-131200714D02*
X154484285Y-131634047D01*
X154329523Y-130953095D02*
X154174761Y-131417380D01*
X154577142Y-131417380D01*
X155103333Y-130984047D02*
X154979523Y-130984047D01*
X154917619Y-131015000D01*
X154886666Y-131045952D01*
X154824761Y-131138809D01*
X154793809Y-131262619D01*
X154793809Y-131510238D01*
X154824761Y-131572142D01*
X154855714Y-131603095D01*
X154917619Y-131634047D01*
X155041428Y-131634047D01*
X155103333Y-131603095D01*
X155134285Y-131572142D01*
X155165238Y-131510238D01*
X155165238Y-131355476D01*
X155134285Y-131293571D01*
X155103333Y-131262619D01*
X155041428Y-131231666D01*
X154917619Y-131231666D01*
X154855714Y-131262619D01*
X154824761Y-131293571D01*
X154793809Y-131355476D01*
X170923809Y-141104047D02*
X171326190Y-141104047D01*
X171109523Y-141351666D01*
X171202380Y-141351666D01*
X171264285Y-141382619D01*
X171295238Y-141413571D01*
X171326190Y-141475476D01*
X171326190Y-141630238D01*
X171295238Y-141692142D01*
X171264285Y-141723095D01*
X171202380Y-141754047D01*
X171016666Y-141754047D01*
X170954761Y-141723095D01*
X170923809Y-141692142D01*
X171883333Y-141320714D02*
X171883333Y-141754047D01*
X171728571Y-141073095D02*
X171573809Y-141537380D01*
X171976190Y-141537380D01*
X164968403Y-171692612D02*
X164968403Y-171042612D01*
X165123164Y-171042612D01*
X165216022Y-171073565D01*
X165277926Y-171135469D01*
X165308879Y-171197374D01*
X165339831Y-171321184D01*
X165339831Y-171414041D01*
X165308879Y-171537850D01*
X165277926Y-171599755D01*
X165216022Y-171661660D01*
X165123164Y-171692612D01*
X164968403Y-171692612D01*
X165618403Y-171692612D02*
X165618403Y-171042612D01*
X166051736Y-171042612D02*
X166175545Y-171042612D01*
X166237450Y-171073565D01*
X166299355Y-171135469D01*
X166330307Y-171259279D01*
X166330307Y-171475945D01*
X166299355Y-171599755D01*
X166237450Y-171661660D01*
X166175545Y-171692612D01*
X166051736Y-171692612D01*
X165989831Y-171661660D01*
X165927926Y-171599755D01*
X165896974Y-171475945D01*
X165896974Y-171259279D01*
X165927926Y-171135469D01*
X165989831Y-171073565D01*
X166051736Y-171042612D01*
X166732688Y-171042612D02*
X166794593Y-171042612D01*
X166856498Y-171073565D01*
X166887450Y-171104517D01*
X166918403Y-171166422D01*
X166949355Y-171290231D01*
X166949355Y-171444993D01*
X166918403Y-171568803D01*
X166887450Y-171630707D01*
X166856498Y-171661660D01*
X166794593Y-171692612D01*
X166732688Y-171692612D01*
X166670783Y-171661660D01*
X166639831Y-171630707D01*
X166608879Y-171568803D01*
X166577926Y-171444993D01*
X166577926Y-171290231D01*
X166608879Y-171166422D01*
X166639831Y-171104517D01*
X166670783Y-171073565D01*
X166732688Y-171042612D01*
X169254047Y-132804761D02*
X169254047Y-132402380D01*
X169501666Y-132619047D01*
X169501666Y-132526190D01*
X169532619Y-132464285D01*
X169563571Y-132433333D01*
X169625476Y-132402380D01*
X169780238Y-132402380D01*
X169842142Y-132433333D01*
X169873095Y-132464285D01*
X169904047Y-132526190D01*
X169904047Y-132711904D01*
X169873095Y-132773809D01*
X169842142Y-132804761D01*
X169254047Y-132216666D02*
X169904047Y-132000000D01*
X169254047Y-131783333D01*
X169254047Y-131628571D02*
X169254047Y-131226190D01*
X169501666Y-131442857D01*
X169501666Y-131350000D01*
X169532619Y-131288095D01*
X169563571Y-131257142D01*
X169625476Y-131226190D01*
X169780238Y-131226190D01*
X169842142Y-131257142D01*
X169873095Y-131288095D01*
X169904047Y-131350000D01*
X169904047Y-131535714D01*
X169873095Y-131597619D01*
X169842142Y-131628571D01*
X162246666Y-162700321D02*
X162030000Y-162700321D01*
X162030000Y-163040797D02*
X162030000Y-162390797D01*
X162339523Y-162390797D01*
X162556190Y-163009845D02*
X162649047Y-163040797D01*
X162803809Y-163040797D01*
X162865714Y-163009845D01*
X162896666Y-162978892D01*
X162927619Y-162916988D01*
X162927619Y-162855083D01*
X162896666Y-162793178D01*
X162865714Y-162762226D01*
X162803809Y-162731273D01*
X162680000Y-162700321D01*
X162618095Y-162669369D01*
X162587142Y-162638416D01*
X162556190Y-162576511D01*
X162556190Y-162514607D01*
X162587142Y-162452702D01*
X162618095Y-162421750D01*
X162680000Y-162390797D01*
X162834761Y-162390797D01*
X162927619Y-162421750D01*
X163546666Y-163040797D02*
X163175238Y-163040797D01*
X163360952Y-163040797D02*
X163360952Y-162390797D01*
X163299047Y-162483654D01*
X163237142Y-162545559D01*
X163175238Y-162576511D01*
X163949047Y-162390797D02*
X164010952Y-162390797D01*
X164072857Y-162421750D01*
X164103809Y-162452702D01*
X164134761Y-162514607D01*
X164165714Y-162638416D01*
X164165714Y-162793178D01*
X164134761Y-162916988D01*
X164103809Y-162978892D01*
X164072857Y-163009845D01*
X164010952Y-163040797D01*
X163949047Y-163040797D01*
X163887142Y-163009845D01*
X163856190Y-162978892D01*
X163825238Y-162916988D01*
X163794285Y-162793178D01*
X163794285Y-162638416D01*
X163825238Y-162514607D01*
X163856190Y-162452702D01*
X163887142Y-162421750D01*
X163949047Y-162390797D01*
X164568095Y-162390797D02*
X164630000Y-162390797D01*
X164691904Y-162421750D01*
X164722857Y-162452702D01*
X164753809Y-162514607D01*
X164784761Y-162638416D01*
X164784761Y-162793178D01*
X164753809Y-162916988D01*
X164722857Y-162978892D01*
X164691904Y-163009845D01*
X164630000Y-163040797D01*
X164568095Y-163040797D01*
X164506190Y-163009845D01*
X164475238Y-162978892D01*
X164444285Y-162916988D01*
X164413333Y-162793178D01*
X164413333Y-162638416D01*
X164444285Y-162514607D01*
X164475238Y-162452702D01*
X164506190Y-162421750D01*
X164568095Y-162390797D01*
X165187142Y-162390797D02*
X165249047Y-162390797D01*
X165310952Y-162421750D01*
X165341904Y-162452702D01*
X165372857Y-162514607D01*
X165403809Y-162638416D01*
X165403809Y-162793178D01*
X165372857Y-162916988D01*
X165341904Y-162978892D01*
X165310952Y-163009845D01*
X165249047Y-163040797D01*
X165187142Y-163040797D01*
X165125238Y-163009845D01*
X165094285Y-162978892D01*
X165063333Y-162916988D01*
X165032380Y-162793178D01*
X165032380Y-162638416D01*
X165063333Y-162514607D01*
X165094285Y-162452702D01*
X165125238Y-162421750D01*
X165187142Y-162390797D01*
X165651428Y-162855083D02*
X165960952Y-162855083D01*
X165589523Y-163040797D02*
X165806190Y-162390797D01*
X166022857Y-163040797D01*
X163005000Y-164087297D02*
X163005000Y-163437297D01*
X163159761Y-163437297D01*
X163252619Y-163468250D01*
X163314523Y-163530154D01*
X163345476Y-163592059D01*
X163376428Y-163715869D01*
X163376428Y-163808726D01*
X163345476Y-163932535D01*
X163314523Y-163994440D01*
X163252619Y-164056345D01*
X163159761Y-164087297D01*
X163005000Y-164087297D01*
X163624047Y-163901583D02*
X163933571Y-163901583D01*
X163562142Y-164087297D02*
X163778809Y-163437297D01*
X163995476Y-164087297D01*
X164119285Y-163437297D02*
X164490714Y-163437297D01*
X164305000Y-164087297D02*
X164305000Y-163437297D01*
X164676428Y-163901583D02*
X164985952Y-163901583D01*
X164614523Y-164087297D02*
X164831190Y-163437297D01*
X165047857Y-164087297D01*
X152840714Y-125473095D02*
X152933571Y-125504047D01*
X153088333Y-125504047D01*
X153150238Y-125473095D01*
X153181190Y-125442142D01*
X153212142Y-125380238D01*
X153212142Y-125318333D01*
X153181190Y-125256428D01*
X153150238Y-125225476D01*
X153088333Y-125194523D01*
X152964523Y-125163571D01*
X152902619Y-125132619D01*
X152871666Y-125101666D01*
X152840714Y-125039761D01*
X152840714Y-124977857D01*
X152871666Y-124915952D01*
X152902619Y-124885000D01*
X152964523Y-124854047D01*
X153119285Y-124854047D01*
X153212142Y-124885000D01*
X153490714Y-125504047D02*
X153490714Y-124854047D01*
X153645476Y-124854047D01*
X153738333Y-124885000D01*
X153800238Y-124946904D01*
X153831190Y-125008809D01*
X153862142Y-125132619D01*
X153862142Y-125225476D01*
X153831190Y-125349285D01*
X153800238Y-125411190D01*
X153738333Y-125473095D01*
X153645476Y-125504047D01*
X153490714Y-125504047D01*
X154109761Y-125318333D02*
X154419285Y-125318333D01*
X154047857Y-125504047D02*
X154264523Y-124854047D01*
X154481190Y-125504047D01*
X171934083Y-146934117D02*
X171903130Y-146996021D01*
X171903130Y-147088879D01*
X171934083Y-147181736D01*
X171995987Y-147243640D01*
X172057892Y-147274593D01*
X172181702Y-147305545D01*
X172274559Y-147305545D01*
X172398368Y-147274593D01*
X172460273Y-147243640D01*
X172522178Y-147181736D01*
X172553130Y-147088879D01*
X172553130Y-147026974D01*
X172522178Y-146934117D01*
X172491225Y-146903164D01*
X172274559Y-146903164D01*
X172274559Y-147026974D01*
X172553130Y-146624593D02*
X171903130Y-146624593D01*
X172553130Y-146253164D01*
X171903130Y-146253164D01*
X172553130Y-145943640D02*
X171903130Y-145943640D01*
X171903130Y-145788879D01*
X171934083Y-145696021D01*
X171995987Y-145634117D01*
X172057892Y-145603164D01*
X172181702Y-145572212D01*
X172274559Y-145572212D01*
X172398368Y-145603164D01*
X172460273Y-145634117D01*
X172522178Y-145696021D01*
X172553130Y-145788879D01*
X172553130Y-145943640D01*
X162513809Y-132874047D02*
X162916190Y-132874047D01*
X162699523Y-133121666D01*
X162792380Y-133121666D01*
X162854285Y-133152619D01*
X162885238Y-133183571D01*
X162916190Y-133245476D01*
X162916190Y-133400238D01*
X162885238Y-133462142D01*
X162854285Y-133493095D01*
X162792380Y-133524047D01*
X162606666Y-133524047D01*
X162544761Y-133493095D01*
X162513809Y-133462142D01*
X163287619Y-133152619D02*
X163225714Y-133121666D01*
X163194761Y-133090714D01*
X163163809Y-133028809D01*
X163163809Y-132997857D01*
X163194761Y-132935952D01*
X163225714Y-132905000D01*
X163287619Y-132874047D01*
X163411428Y-132874047D01*
X163473333Y-132905000D01*
X163504285Y-132935952D01*
X163535238Y-132997857D01*
X163535238Y-133028809D01*
X163504285Y-133090714D01*
X163473333Y-133121666D01*
X163411428Y-133152619D01*
X163287619Y-133152619D01*
X163225714Y-133183571D01*
X163194761Y-133214523D01*
X163163809Y-133276428D01*
X163163809Y-133400238D01*
X163194761Y-133462142D01*
X163225714Y-133493095D01*
X163287619Y-133524047D01*
X163411428Y-133524047D01*
X163473333Y-133493095D01*
X163504285Y-133462142D01*
X163535238Y-133400238D01*
X163535238Y-133276428D01*
X163504285Y-133214523D01*
X163473333Y-133183571D01*
X163411428Y-133152619D01*
X168483809Y-144164047D02*
X168886190Y-144164047D01*
X168669523Y-144411666D01*
X168762380Y-144411666D01*
X168824285Y-144442619D01*
X168855238Y-144473571D01*
X168886190Y-144535476D01*
X168886190Y-144690238D01*
X168855238Y-144752142D01*
X168824285Y-144783095D01*
X168762380Y-144814047D01*
X168576666Y-144814047D01*
X168514761Y-144783095D01*
X168483809Y-144752142D01*
X169133809Y-144225952D02*
X169164761Y-144195000D01*
X169226666Y-144164047D01*
X169381428Y-144164047D01*
X169443333Y-144195000D01*
X169474285Y-144225952D01*
X169505238Y-144287857D01*
X169505238Y-144349761D01*
X169474285Y-144442619D01*
X169102857Y-144814047D01*
X169505238Y-144814047D01*
X141254761Y-161675000D02*
X141192857Y-161644047D01*
X141100000Y-161644047D01*
X141007142Y-161675000D01*
X140945238Y-161736904D01*
X140914285Y-161798809D01*
X140883333Y-161922619D01*
X140883333Y-162015476D01*
X140914285Y-162139285D01*
X140945238Y-162201190D01*
X141007142Y-162263095D01*
X141100000Y-162294047D01*
X141161904Y-162294047D01*
X141254761Y-162263095D01*
X141285714Y-162232142D01*
X141285714Y-162015476D01*
X141161904Y-162015476D01*
X141564285Y-162294047D02*
X141564285Y-161644047D01*
X141935714Y-162294047D01*
X141935714Y-161644047D01*
X142245238Y-162294047D02*
X142245238Y-161644047D01*
X142400000Y-161644047D01*
X142492857Y-161675000D01*
X142554761Y-161736904D01*
X142585714Y-161798809D01*
X142616666Y-161922619D01*
X142616666Y-162015476D01*
X142585714Y-162139285D01*
X142554761Y-162201190D01*
X142492857Y-162263095D01*
X142400000Y-162294047D01*
X142245238Y-162294047D01*
X165983809Y-136990797D02*
X166386190Y-136990797D01*
X166169523Y-137238416D01*
X166262380Y-137238416D01*
X166324285Y-137269369D01*
X166355238Y-137300321D01*
X166386190Y-137362226D01*
X166386190Y-137516988D01*
X166355238Y-137578892D01*
X166324285Y-137609845D01*
X166262380Y-137640797D01*
X166076666Y-137640797D01*
X166014761Y-137609845D01*
X165983809Y-137578892D01*
X166788571Y-136990797D02*
X166850476Y-136990797D01*
X166912380Y-137021750D01*
X166943333Y-137052702D01*
X166974285Y-137114607D01*
X167005238Y-137238416D01*
X167005238Y-137393178D01*
X166974285Y-137516988D01*
X166943333Y-137578892D01*
X166912380Y-137609845D01*
X166850476Y-137640797D01*
X166788571Y-137640797D01*
X166726666Y-137609845D01*
X166695714Y-137578892D01*
X166664761Y-137516988D01*
X166633809Y-137393178D01*
X166633809Y-137238416D01*
X166664761Y-137114607D01*
X166695714Y-137052702D01*
X166726666Y-137021750D01*
X166788571Y-136990797D01*
X165705238Y-138687297D02*
X165705238Y-138037297D01*
X165952857Y-138037297D01*
X166014761Y-138068250D01*
X166045714Y-138099202D01*
X166076666Y-138161107D01*
X166076666Y-138253964D01*
X166045714Y-138315869D01*
X166014761Y-138346821D01*
X165952857Y-138377773D01*
X165705238Y-138377773D01*
X166726666Y-138625392D02*
X166695714Y-138656345D01*
X166602857Y-138687297D01*
X166540952Y-138687297D01*
X166448095Y-138656345D01*
X166386190Y-138594440D01*
X166355238Y-138532535D01*
X166324285Y-138408726D01*
X166324285Y-138315869D01*
X166355238Y-138192059D01*
X166386190Y-138130154D01*
X166448095Y-138068250D01*
X166540952Y-138037297D01*
X166602857Y-138037297D01*
X166695714Y-138068250D01*
X166726666Y-138099202D01*
X167283809Y-138037297D02*
X167160000Y-138037297D01*
X167098095Y-138068250D01*
X167067142Y-138099202D01*
X167005238Y-138192059D01*
X166974285Y-138315869D01*
X166974285Y-138563488D01*
X167005238Y-138625392D01*
X167036190Y-138656345D01*
X167098095Y-138687297D01*
X167221904Y-138687297D01*
X167283809Y-138656345D01*
X167314761Y-138625392D01*
X167345714Y-138563488D01*
X167345714Y-138408726D01*
X167314761Y-138346821D01*
X167283809Y-138315869D01*
X167221904Y-138284916D01*
X167098095Y-138284916D01*
X167036190Y-138315869D01*
X167005238Y-138346821D01*
X166974285Y-138408726D01*
X154408333Y-173102857D02*
X154408333Y-172793333D01*
X154594047Y-173164761D02*
X153944047Y-172948095D01*
X154594047Y-172731428D01*
X154594047Y-172514761D02*
X153944047Y-172514761D01*
X154594047Y-172143333D01*
X153944047Y-172143333D01*
X153944047Y-171926666D02*
X153944047Y-171555238D01*
X154594047Y-171740952D02*
X153944047Y-171740952D01*
X150795714Y-135604047D02*
X150424285Y-135604047D01*
X150610000Y-135604047D02*
X150610000Y-134954047D01*
X150548095Y-135046904D01*
X150486190Y-135108809D01*
X150424285Y-135139761D01*
X154616666Y-128583095D02*
X154709523Y-128614047D01*
X154864285Y-128614047D01*
X154926190Y-128583095D01*
X154957142Y-128552142D01*
X154988095Y-128490238D01*
X154988095Y-128428333D01*
X154957142Y-128366428D01*
X154926190Y-128335476D01*
X154864285Y-128304523D01*
X154740476Y-128273571D01*
X154678571Y-128242619D01*
X154647619Y-128211666D01*
X154616666Y-128149761D01*
X154616666Y-128087857D01*
X154647619Y-128025952D01*
X154678571Y-127995000D01*
X154740476Y-127964047D01*
X154895238Y-127964047D01*
X154988095Y-127995000D01*
X155204761Y-127964047D02*
X155607142Y-127964047D01*
X155390476Y-128211666D01*
X155483333Y-128211666D01*
X155545238Y-128242619D01*
X155576190Y-128273571D01*
X155607142Y-128335476D01*
X155607142Y-128490238D01*
X155576190Y-128552142D01*
X155545238Y-128583095D01*
X155483333Y-128614047D01*
X155297619Y-128614047D01*
X155235714Y-128583095D01*
X155204761Y-128552142D01*
X155792857Y-127964047D02*
X156009523Y-128614047D01*
X156226190Y-127964047D01*
X156380952Y-127964047D02*
X156783333Y-127964047D01*
X156566666Y-128211666D01*
X156659523Y-128211666D01*
X156721428Y-128242619D01*
X156752380Y-128273571D01*
X156783333Y-128335476D01*
X156783333Y-128490238D01*
X156752380Y-128552142D01*
X156721428Y-128583095D01*
X156659523Y-128614047D01*
X156473809Y-128614047D01*
X156411904Y-128583095D01*
X156380952Y-128552142D01*
X169435000Y-140105238D02*
X169404047Y-140167142D01*
X169404047Y-140260000D01*
X169435000Y-140352857D01*
X169496904Y-140414761D01*
X169558809Y-140445714D01*
X169682619Y-140476666D01*
X169775476Y-140476666D01*
X169899285Y-140445714D01*
X169961190Y-140414761D01*
X170023095Y-140352857D01*
X170054047Y-140260000D01*
X170054047Y-140198095D01*
X170023095Y-140105238D01*
X169992142Y-140074285D01*
X169775476Y-140074285D01*
X169775476Y-140198095D01*
X170054047Y-139795714D02*
X169404047Y-139795714D01*
X170054047Y-139424285D01*
X169404047Y-139424285D01*
X170054047Y-139114761D02*
X169404047Y-139114761D01*
X169404047Y-138960000D01*
X169435000Y-138867142D01*
X169496904Y-138805238D01*
X169558809Y-138774285D01*
X169682619Y-138743333D01*
X169775476Y-138743333D01*
X169899285Y-138774285D01*
X169961190Y-138805238D01*
X170023095Y-138867142D01*
X170054047Y-138960000D01*
X170054047Y-139114761D01*
X144234047Y-135861904D02*
X143584047Y-135861904D01*
X144048333Y-135645238D01*
X143584047Y-135428571D01*
X144234047Y-135428571D01*
X144172142Y-134747619D02*
X144203095Y-134778571D01*
X144234047Y-134871428D01*
X144234047Y-134933333D01*
X144203095Y-135026190D01*
X144141190Y-135088095D01*
X144079285Y-135119047D01*
X143955476Y-135150000D01*
X143862619Y-135150000D01*
X143738809Y-135119047D01*
X143676904Y-135088095D01*
X143615000Y-135026190D01*
X143584047Y-134933333D01*
X143584047Y-134871428D01*
X143615000Y-134778571D01*
X143645952Y-134747619D01*
X143584047Y-134469047D02*
X144110238Y-134469047D01*
X144172142Y-134438095D01*
X144203095Y-134407142D01*
X144234047Y-134345238D01*
X144234047Y-134221428D01*
X144203095Y-134159523D01*
X144172142Y-134128571D01*
X144110238Y-134097619D01*
X143584047Y-134097619D01*
X144295952Y-133942857D02*
X144295952Y-133447619D01*
X144234047Y-132921428D02*
X143924523Y-133138095D01*
X144234047Y-133292857D02*
X143584047Y-133292857D01*
X143584047Y-133045238D01*
X143615000Y-132983333D01*
X143645952Y-132952380D01*
X143707857Y-132921428D01*
X143800714Y-132921428D01*
X143862619Y-132952380D01*
X143893571Y-132983333D01*
X143924523Y-133045238D01*
X143924523Y-133292857D01*
X144203095Y-132673809D02*
X144234047Y-132580952D01*
X144234047Y-132426190D01*
X144203095Y-132364285D01*
X144172142Y-132333333D01*
X144110238Y-132302380D01*
X144048333Y-132302380D01*
X143986428Y-132333333D01*
X143955476Y-132364285D01*
X143924523Y-132426190D01*
X143893571Y-132550000D01*
X143862619Y-132611904D01*
X143831666Y-132642857D01*
X143769761Y-132673809D01*
X143707857Y-132673809D01*
X143645952Y-132642857D01*
X143615000Y-132611904D01*
X143584047Y-132550000D01*
X143584047Y-132395238D01*
X143615000Y-132302380D01*
X143584047Y-132116666D02*
X143584047Y-131745238D01*
X144234047Y-131930952D02*
X143584047Y-131930952D01*
X155344761Y-124885000D02*
X155282857Y-124854047D01*
X155190000Y-124854047D01*
X155097142Y-124885000D01*
X155035238Y-124946904D01*
X155004285Y-125008809D01*
X154973333Y-125132619D01*
X154973333Y-125225476D01*
X155004285Y-125349285D01*
X155035238Y-125411190D01*
X155097142Y-125473095D01*
X155190000Y-125504047D01*
X155251904Y-125504047D01*
X155344761Y-125473095D01*
X155375714Y-125442142D01*
X155375714Y-125225476D01*
X155251904Y-125225476D01*
X155654285Y-125504047D02*
X155654285Y-124854047D01*
X156025714Y-125504047D01*
X156025714Y-124854047D01*
X156335238Y-125504047D02*
X156335238Y-124854047D01*
X156490000Y-124854047D01*
X156582857Y-124885000D01*
X156644761Y-124946904D01*
X156675714Y-125008809D01*
X156706666Y-125132619D01*
X156706666Y-125225476D01*
X156675714Y-125349285D01*
X156644761Y-125411190D01*
X156582857Y-125473095D01*
X156490000Y-125504047D01*
X156335238Y-125504047D01*
X163404761Y-139942702D02*
X163435714Y-139911750D01*
X163497619Y-139880797D01*
X163652380Y-139880797D01*
X163714285Y-139911750D01*
X163745238Y-139942702D01*
X163776190Y-140004607D01*
X163776190Y-140066511D01*
X163745238Y-140159369D01*
X163373809Y-140530797D01*
X163776190Y-140530797D01*
X164147619Y-140159369D02*
X164085714Y-140128416D01*
X164054761Y-140097464D01*
X164023809Y-140035559D01*
X164023809Y-140004607D01*
X164054761Y-139942702D01*
X164085714Y-139911750D01*
X164147619Y-139880797D01*
X164271428Y-139880797D01*
X164333333Y-139911750D01*
X164364285Y-139942702D01*
X164395238Y-140004607D01*
X164395238Y-140035559D01*
X164364285Y-140097464D01*
X164333333Y-140128416D01*
X164271428Y-140159369D01*
X164147619Y-140159369D01*
X164085714Y-140190321D01*
X164054761Y-140221273D01*
X164023809Y-140283178D01*
X164023809Y-140406988D01*
X164054761Y-140468892D01*
X164085714Y-140499845D01*
X164147619Y-140530797D01*
X164271428Y-140530797D01*
X164333333Y-140499845D01*
X164364285Y-140468892D01*
X164395238Y-140406988D01*
X164395238Y-140283178D01*
X164364285Y-140221273D01*
X164333333Y-140190321D01*
X164271428Y-140159369D01*
X163141666Y-141577297D02*
X163141666Y-140927297D01*
X163389285Y-140927297D01*
X163451190Y-140958250D01*
X163482142Y-140989202D01*
X163513095Y-141051107D01*
X163513095Y-141143964D01*
X163482142Y-141205869D01*
X163451190Y-141236821D01*
X163389285Y-141267773D01*
X163141666Y-141267773D01*
X163760714Y-141391583D02*
X164070238Y-141391583D01*
X163698809Y-141577297D02*
X163915476Y-140927297D01*
X164132142Y-141577297D01*
X164441666Y-141205869D02*
X164379761Y-141174916D01*
X164348809Y-141143964D01*
X164317857Y-141082059D01*
X164317857Y-141051107D01*
X164348809Y-140989202D01*
X164379761Y-140958250D01*
X164441666Y-140927297D01*
X164565476Y-140927297D01*
X164627380Y-140958250D01*
X164658333Y-140989202D01*
X164689285Y-141051107D01*
X164689285Y-141082059D01*
X164658333Y-141143964D01*
X164627380Y-141174916D01*
X164565476Y-141205869D01*
X164441666Y-141205869D01*
X164379761Y-141236821D01*
X164348809Y-141267773D01*
X164317857Y-141329678D01*
X164317857Y-141453488D01*
X164348809Y-141515392D01*
X164379761Y-141546345D01*
X164441666Y-141577297D01*
X164565476Y-141577297D01*
X164627380Y-141546345D01*
X164658333Y-141515392D01*
X164689285Y-141453488D01*
X164689285Y-141329678D01*
X164658333Y-141267773D01*
X164627380Y-141236821D01*
X164565476Y-141205869D01*
X162505414Y-171861289D02*
X162505414Y-171211289D01*
X162660175Y-171211289D01*
X162753033Y-171242242D01*
X162814937Y-171304146D01*
X162845890Y-171366051D01*
X162876842Y-171489861D01*
X162876842Y-171582718D01*
X162845890Y-171706527D01*
X162814937Y-171768432D01*
X162753033Y-171830337D01*
X162660175Y-171861289D01*
X162505414Y-171861289D01*
X163155414Y-171861289D02*
X163155414Y-171211289D01*
X163588747Y-171211289D02*
X163712556Y-171211289D01*
X163774461Y-171242242D01*
X163836366Y-171304146D01*
X163867318Y-171427956D01*
X163867318Y-171644622D01*
X163836366Y-171768432D01*
X163774461Y-171830337D01*
X163712556Y-171861289D01*
X163588747Y-171861289D01*
X163526842Y-171830337D01*
X163464937Y-171768432D01*
X163433985Y-171644622D01*
X163433985Y-171427956D01*
X163464937Y-171304146D01*
X163526842Y-171242242D01*
X163588747Y-171211289D01*
X164424461Y-171427956D02*
X164424461Y-171861289D01*
X164269699Y-171180337D02*
X164114937Y-171644622D01*
X164517318Y-171644622D01*
X169853095Y-138517380D02*
X169884047Y-138424523D01*
X169884047Y-138269761D01*
X169853095Y-138207857D01*
X169822142Y-138176904D01*
X169760238Y-138145952D01*
X169698333Y-138145952D01*
X169636428Y-138176904D01*
X169605476Y-138207857D01*
X169574523Y-138269761D01*
X169543571Y-138393571D01*
X169512619Y-138455476D01*
X169481666Y-138486428D01*
X169419761Y-138517380D01*
X169357857Y-138517380D01*
X169295952Y-138486428D01*
X169265000Y-138455476D01*
X169234047Y-138393571D01*
X169234047Y-138238809D01*
X169265000Y-138145952D01*
X169234047Y-137929285D02*
X169884047Y-137774523D01*
X169419761Y-137650714D01*
X169884047Y-137526904D01*
X169234047Y-137372142D01*
X169884047Y-137124523D02*
X169234047Y-137124523D01*
X169234047Y-136969761D01*
X169265000Y-136876904D01*
X169326904Y-136815000D01*
X169388809Y-136784047D01*
X169512619Y-136753095D01*
X169605476Y-136753095D01*
X169729285Y-136784047D01*
X169791190Y-136815000D01*
X169853095Y-136876904D01*
X169884047Y-136969761D01*
X169884047Y-137124523D01*
X169884047Y-136474523D02*
X169234047Y-136474523D01*
X169234047Y-136041190D02*
X169234047Y-135917380D01*
X169265000Y-135855476D01*
X169326904Y-135793571D01*
X169450714Y-135762619D01*
X169667380Y-135762619D01*
X169791190Y-135793571D01*
X169853095Y-135855476D01*
X169884047Y-135917380D01*
X169884047Y-136041190D01*
X169853095Y-136103095D01*
X169791190Y-136165000D01*
X169667380Y-136195952D01*
X169450714Y-136195952D01*
X169326904Y-136165000D01*
X169265000Y-136103095D01*
X169234047Y-136041190D01*
X168972585Y-171703223D02*
X168972585Y-171053223D01*
X169127346Y-171053223D01*
X169220204Y-171084176D01*
X169282108Y-171146080D01*
X169313061Y-171207985D01*
X169344013Y-171331795D01*
X169344013Y-171424652D01*
X169313061Y-171548461D01*
X169282108Y-171610366D01*
X169220204Y-171672271D01*
X169127346Y-171703223D01*
X168972585Y-171703223D01*
X169622585Y-171703223D02*
X169622585Y-171053223D01*
X170055918Y-171053223D02*
X170179727Y-171053223D01*
X170241632Y-171084176D01*
X170303537Y-171146080D01*
X170334489Y-171269890D01*
X170334489Y-171486556D01*
X170303537Y-171610366D01*
X170241632Y-171672271D01*
X170179727Y-171703223D01*
X170055918Y-171703223D01*
X169994013Y-171672271D01*
X169932108Y-171610366D01*
X169901156Y-171486556D01*
X169901156Y-171269890D01*
X169932108Y-171146080D01*
X169994013Y-171084176D01*
X170055918Y-171053223D01*
X170582108Y-171115128D02*
X170613061Y-171084176D01*
X170674965Y-171053223D01*
X170829727Y-171053223D01*
X170891632Y-171084176D01*
X170922585Y-171115128D01*
X170953537Y-171177033D01*
X170953537Y-171238937D01*
X170922585Y-171331795D01*
X170551156Y-171703223D01*
X170953537Y-171703223D01*
X145779472Y-153788145D02*
X145810424Y-153695288D01*
X145810424Y-153540526D01*
X145779472Y-153478621D01*
X145748519Y-153447669D01*
X145686615Y-153416716D01*
X145624710Y-153416716D01*
X145562805Y-153447669D01*
X145531853Y-153478621D01*
X145500900Y-153540526D01*
X145469948Y-153664335D01*
X145438996Y-153726240D01*
X145408043Y-153757192D01*
X145346138Y-153788145D01*
X145284234Y-153788145D01*
X145222329Y-153757192D01*
X145191377Y-153726240D01*
X145160424Y-153664335D01*
X145160424Y-153509573D01*
X145191377Y-153416716D01*
X145748519Y-152766716D02*
X145779472Y-152797669D01*
X145810424Y-152890526D01*
X145810424Y-152952431D01*
X145779472Y-153045288D01*
X145717567Y-153107192D01*
X145655662Y-153138145D01*
X145531853Y-153169097D01*
X145438996Y-153169097D01*
X145315186Y-153138145D01*
X145253281Y-153107192D01*
X145191377Y-153045288D01*
X145160424Y-152952431D01*
X145160424Y-152890526D01*
X145191377Y-152797669D01*
X145222329Y-152766716D01*
X145810424Y-152488145D02*
X145160424Y-152488145D01*
X145810424Y-152116716D02*
X145438996Y-152395288D01*
X145160424Y-152116716D02*
X145531853Y-152488145D01*
X152812380Y-144880797D02*
X152595714Y-144571273D01*
X152440952Y-144880797D02*
X152440952Y-144230797D01*
X152688571Y-144230797D01*
X152750476Y-144261750D01*
X152781428Y-144292702D01*
X152812380Y-144354607D01*
X152812380Y-144447464D01*
X152781428Y-144509369D01*
X152750476Y-144540321D01*
X152688571Y-144571273D01*
X152440952Y-144571273D01*
X153060000Y-144695083D02*
X153369523Y-144695083D01*
X152998095Y-144880797D02*
X153214761Y-144230797D01*
X153431428Y-144880797D01*
X153648095Y-144880797D02*
X153648095Y-144230797D01*
X153802857Y-144230797D01*
X153895714Y-144261750D01*
X153957619Y-144323654D01*
X153988571Y-144385559D01*
X154019523Y-144509369D01*
X154019523Y-144602226D01*
X153988571Y-144726035D01*
X153957619Y-144787940D01*
X153895714Y-144849845D01*
X153802857Y-144880797D01*
X153648095Y-144880797D01*
X154298095Y-144880797D02*
X154298095Y-144230797D01*
X154731428Y-144230797D02*
X154855238Y-144230797D01*
X154917142Y-144261750D01*
X154979047Y-144323654D01*
X155010000Y-144447464D01*
X155010000Y-144664130D01*
X154979047Y-144787940D01*
X154917142Y-144849845D01*
X154855238Y-144880797D01*
X154731428Y-144880797D01*
X154669523Y-144849845D01*
X154607619Y-144787940D01*
X154576666Y-144664130D01*
X154576666Y-144447464D01*
X154607619Y-144323654D01*
X154669523Y-144261750D01*
X154731428Y-144230797D01*
X153152857Y-145896345D02*
X153245714Y-145927297D01*
X153400476Y-145927297D01*
X153462380Y-145896345D01*
X153493333Y-145865392D01*
X153524285Y-145803488D01*
X153524285Y-145741583D01*
X153493333Y-145679678D01*
X153462380Y-145648726D01*
X153400476Y-145617773D01*
X153276666Y-145586821D01*
X153214761Y-145555869D01*
X153183809Y-145524916D01*
X153152857Y-145463011D01*
X153152857Y-145401107D01*
X153183809Y-145339202D01*
X153214761Y-145308250D01*
X153276666Y-145277297D01*
X153431428Y-145277297D01*
X153524285Y-145308250D01*
X153740952Y-145277297D02*
X153895714Y-145927297D01*
X154019523Y-145463011D01*
X154143333Y-145927297D01*
X154298095Y-145277297D01*
X160404047Y-130868333D02*
X159754047Y-130868333D01*
X160404047Y-130496904D01*
X159754047Y-130496904D01*
X159754047Y-130280238D02*
X159754047Y-129908809D01*
X160404047Y-130094523D02*
X159754047Y-130094523D01*
X160342142Y-129320714D02*
X160373095Y-129351666D01*
X160404047Y-129444523D01*
X160404047Y-129506428D01*
X160373095Y-129599285D01*
X160311190Y-129661190D01*
X160249285Y-129692142D01*
X160125476Y-129723095D01*
X160032619Y-129723095D01*
X159908809Y-129692142D01*
X159846904Y-129661190D01*
X159785000Y-129599285D01*
X159754047Y-129506428D01*
X159754047Y-129444523D01*
X159785000Y-129351666D01*
X159815952Y-129320714D01*
X147518911Y-123477620D02*
X147611768Y-123508572D01*
X147766530Y-123508572D01*
X147828435Y-123477620D01*
X147859387Y-123446667D01*
X147890340Y-123384763D01*
X147890340Y-123322858D01*
X147859387Y-123260953D01*
X147828435Y-123230001D01*
X147766530Y-123199048D01*
X147642721Y-123168096D01*
X147580816Y-123137144D01*
X147549864Y-123106191D01*
X147518911Y-123044286D01*
X147518911Y-122982382D01*
X147549864Y-122920477D01*
X147580816Y-122889525D01*
X147642721Y-122858572D01*
X147797483Y-122858572D01*
X147890340Y-122889525D01*
X148168911Y-123508572D02*
X148168911Y-122858572D01*
X148540340Y-123508572D01*
X148540340Y-122858572D01*
X148818911Y-123477620D02*
X148911768Y-123508572D01*
X149066530Y-123508572D01*
X149128435Y-123477620D01*
X149159387Y-123446667D01*
X149190340Y-123384763D01*
X149190340Y-123322858D01*
X149159387Y-123260953D01*
X149128435Y-123230001D01*
X149066530Y-123199048D01*
X148942721Y-123168096D01*
X148880816Y-123137144D01*
X148849864Y-123106191D01*
X148818911Y-123044286D01*
X148818911Y-122982382D01*
X148849864Y-122920477D01*
X148880816Y-122889525D01*
X148942721Y-122858572D01*
X149097483Y-122858572D01*
X149190340Y-122889525D01*
X149840340Y-123508572D02*
X149623673Y-123199048D01*
X149468911Y-123508572D02*
X149468911Y-122858572D01*
X149716530Y-122858572D01*
X149778435Y-122889525D01*
X149809387Y-122920477D01*
X149840340Y-122982382D01*
X149840340Y-123075239D01*
X149809387Y-123137144D01*
X149778435Y-123168096D01*
X149716530Y-123199048D01*
X149468911Y-123199048D01*
X147874864Y-123905072D02*
X148277245Y-123905072D01*
X148060578Y-124152691D01*
X148153435Y-124152691D01*
X148215340Y-124183644D01*
X148246292Y-124214596D01*
X148277245Y-124276501D01*
X148277245Y-124431263D01*
X148246292Y-124493167D01*
X148215340Y-124524120D01*
X148153435Y-124555072D01*
X147967721Y-124555072D01*
X147905816Y-124524120D01*
X147874864Y-124493167D01*
X148462959Y-123905072D02*
X148679626Y-124555072D01*
X148896292Y-123905072D01*
X149051054Y-123905072D02*
X149453435Y-123905072D01*
X149236768Y-124152691D01*
X149329626Y-124152691D01*
X149391530Y-124183644D01*
X149422483Y-124214596D01*
X149453435Y-124276501D01*
X149453435Y-124431263D01*
X149422483Y-124493167D01*
X149391530Y-124524120D01*
X149329626Y-124555072D01*
X149143911Y-124555072D01*
X149082006Y-124524120D01*
X149051054Y-124493167D01*
X157824761Y-163175000D02*
X157762857Y-163144047D01*
X157670000Y-163144047D01*
X157577142Y-163175000D01*
X157515238Y-163236904D01*
X157484285Y-163298809D01*
X157453333Y-163422619D01*
X157453333Y-163515476D01*
X157484285Y-163639285D01*
X157515238Y-163701190D01*
X157577142Y-163763095D01*
X157670000Y-163794047D01*
X157731904Y-163794047D01*
X157824761Y-163763095D01*
X157855714Y-163732142D01*
X157855714Y-163515476D01*
X157731904Y-163515476D01*
X158134285Y-163794047D02*
X158134285Y-163144047D01*
X158505714Y-163794047D01*
X158505714Y-163144047D01*
X158815238Y-163794047D02*
X158815238Y-163144047D01*
X158970000Y-163144047D01*
X159062857Y-163175000D01*
X159124761Y-163236904D01*
X159155714Y-163298809D01*
X159186666Y-163422619D01*
X159186666Y-163515476D01*
X159155714Y-163639285D01*
X159124761Y-163701190D01*
X159062857Y-163763095D01*
X158970000Y-163794047D01*
X158815238Y-163794047D01*
X157564285Y-132990714D02*
X157564285Y-133424047D01*
X157409523Y-132743095D02*
X157254761Y-133207380D01*
X157657142Y-133207380D01*
X158183333Y-132990714D02*
X158183333Y-133424047D01*
X158028571Y-132743095D02*
X157873809Y-133207380D01*
X158276190Y-133207380D01*
X146804554Y-153604800D02*
X146773602Y-153635753D01*
X146680745Y-153666705D01*
X146618840Y-153666705D01*
X146525983Y-153635753D01*
X146464078Y-153573848D01*
X146433126Y-153511943D01*
X146402173Y-153388134D01*
X146402173Y-153295277D01*
X146433126Y-153171467D01*
X146464078Y-153109562D01*
X146525983Y-153047658D01*
X146618840Y-153016705D01*
X146680745Y-153016705D01*
X146773602Y-153047658D01*
X146804554Y-153078610D01*
X147052173Y-153635753D02*
X147145030Y-153666705D01*
X147299792Y-153666705D01*
X147361697Y-153635753D01*
X147392649Y-153604800D01*
X147423602Y-153542896D01*
X147423602Y-153480991D01*
X147392649Y-153419086D01*
X147361697Y-153388134D01*
X147299792Y-153357181D01*
X147175983Y-153326229D01*
X147114078Y-153295277D01*
X147083126Y-153264324D01*
X147052173Y-153202419D01*
X147052173Y-153140515D01*
X147083126Y-153078610D01*
X147114078Y-153047658D01*
X147175983Y-153016705D01*
X147330745Y-153016705D01*
X147423602Y-153047658D01*
X143634761Y-122835000D02*
X143572857Y-122804047D01*
X143480000Y-122804047D01*
X143387142Y-122835000D01*
X143325238Y-122896904D01*
X143294285Y-122958809D01*
X143263333Y-123082619D01*
X143263333Y-123175476D01*
X143294285Y-123299285D01*
X143325238Y-123361190D01*
X143387142Y-123423095D01*
X143480000Y-123454047D01*
X143541904Y-123454047D01*
X143634761Y-123423095D01*
X143665714Y-123392142D01*
X143665714Y-123175476D01*
X143541904Y-123175476D01*
X143944285Y-123454047D02*
X143944285Y-122804047D01*
X144315714Y-123454047D01*
X144315714Y-122804047D01*
X144625238Y-123454047D02*
X144625238Y-122804047D01*
X144780000Y-122804047D01*
X144872857Y-122835000D01*
X144934761Y-122896904D01*
X144965714Y-122958809D01*
X144996666Y-123082619D01*
X144996666Y-123175476D01*
X144965714Y-123299285D01*
X144934761Y-123361190D01*
X144872857Y-123423095D01*
X144780000Y-123454047D01*
X144625238Y-123454047D01*
X152964285Y-134300714D02*
X152964285Y-134734047D01*
X152809523Y-134053095D02*
X152654761Y-134517380D01*
X153057142Y-134517380D01*
X153397619Y-134362619D02*
X153335714Y-134331666D01*
X153304761Y-134300714D01*
X153273809Y-134238809D01*
X153273809Y-134207857D01*
X153304761Y-134145952D01*
X153335714Y-134115000D01*
X153397619Y-134084047D01*
X153521428Y-134084047D01*
X153583333Y-134115000D01*
X153614285Y-134145952D01*
X153645238Y-134207857D01*
X153645238Y-134238809D01*
X153614285Y-134300714D01*
X153583333Y-134331666D01*
X153521428Y-134362619D01*
X153397619Y-134362619D01*
X153335714Y-134393571D01*
X153304761Y-134424523D01*
X153273809Y-134486428D01*
X153273809Y-134610238D01*
X153304761Y-134672142D01*
X153335714Y-134703095D01*
X153397619Y-134734047D01*
X153521428Y-134734047D01*
X153583333Y-134703095D01*
X153614285Y-134672142D01*
X153645238Y-134610238D01*
X153645238Y-134486428D01*
X153614285Y-134424523D01*
X153583333Y-134393571D01*
X153521428Y-134362619D01*
X156044285Y-133003132D02*
X156044285Y-133436465D01*
X155889523Y-132755513D02*
X155734761Y-133219798D01*
X156137142Y-133219798D01*
X156694285Y-132786465D02*
X156384761Y-132786465D01*
X156353809Y-133095989D01*
X156384761Y-133065037D01*
X156446666Y-133034084D01*
X156601428Y-133034084D01*
X156663333Y-133065037D01*
X156694285Y-133095989D01*
X156725238Y-133157894D01*
X156725238Y-133312656D01*
X156694285Y-133374560D01*
X156663333Y-133405513D01*
X156601428Y-133436465D01*
X156446666Y-133436465D01*
X156384761Y-133405513D01*
X156353809Y-133374560D01*
X158951580Y-133070714D02*
X158951580Y-133504047D01*
X158796818Y-132823095D02*
X158642056Y-133287380D01*
X159044437Y-133287380D01*
X159230152Y-132854047D02*
X159632533Y-132854047D01*
X159415866Y-133101666D01*
X159508723Y-133101666D01*
X159570628Y-133132619D01*
X159601580Y-133163571D01*
X159632533Y-133225476D01*
X159632533Y-133380238D01*
X159601580Y-133442142D01*
X159570628Y-133473095D01*
X159508723Y-133504047D01*
X159323009Y-133504047D01*
X159261104Y-133473095D01*
X159230152Y-133442142D01*
X160081227Y-167192870D02*
X159864561Y-166883346D01*
X159709799Y-167192870D02*
X159709799Y-166542870D01*
X159957418Y-166542870D01*
X160019323Y-166573823D01*
X160050275Y-166604775D01*
X160081227Y-166666680D01*
X160081227Y-166759537D01*
X160050275Y-166821442D01*
X160019323Y-166852394D01*
X159957418Y-166883346D01*
X159709799Y-166883346D01*
X160328847Y-167007156D02*
X160638370Y-167007156D01*
X160266942Y-167192870D02*
X160483608Y-166542870D01*
X160700275Y-167192870D01*
X160916942Y-167192870D02*
X160916942Y-166542870D01*
X161071704Y-166542870D01*
X161164561Y-166573823D01*
X161226466Y-166635727D01*
X161257418Y-166697632D01*
X161288370Y-166821442D01*
X161288370Y-166914299D01*
X161257418Y-167038108D01*
X161226466Y-167100013D01*
X161164561Y-167161918D01*
X161071704Y-167192870D01*
X160916942Y-167192870D01*
X161566942Y-167192870D02*
X161566942Y-166542870D01*
X162000275Y-166542870D02*
X162124085Y-166542870D01*
X162185989Y-166573823D01*
X162247894Y-166635727D01*
X162278847Y-166759537D01*
X162278847Y-166976203D01*
X162247894Y-167100013D01*
X162185989Y-167161918D01*
X162124085Y-167192870D01*
X162000275Y-167192870D01*
X161938370Y-167161918D01*
X161876466Y-167100013D01*
X161845513Y-166976203D01*
X161845513Y-166759537D01*
X161876466Y-166635727D01*
X161938370Y-166573823D01*
X162000275Y-166542870D01*
X160174085Y-167589370D02*
X160576466Y-167589370D01*
X160359799Y-167836989D01*
X160452656Y-167836989D01*
X160514561Y-167867942D01*
X160545513Y-167898894D01*
X160576466Y-167960799D01*
X160576466Y-168115561D01*
X160545513Y-168177465D01*
X160514561Y-168208418D01*
X160452656Y-168239370D01*
X160266942Y-168239370D01*
X160205037Y-168208418D01*
X160174085Y-168177465D01*
X160762180Y-167589370D02*
X160978847Y-168239370D01*
X161195513Y-167589370D01*
X161350275Y-167589370D02*
X161752656Y-167589370D01*
X161535989Y-167836989D01*
X161628847Y-167836989D01*
X161690751Y-167867942D01*
X161721704Y-167898894D01*
X161752656Y-167960799D01*
X161752656Y-168115561D01*
X161721704Y-168177465D01*
X161690751Y-168208418D01*
X161628847Y-168239370D01*
X161443132Y-168239370D01*
X161381227Y-168208418D01*
X161350275Y-168177465D01*
X142779697Y-153838028D02*
X142129697Y-153838028D01*
X142593983Y-153621361D01*
X142129697Y-153404695D01*
X142779697Y-153404695D01*
X142779697Y-153095171D02*
X142129697Y-153095171D01*
X142748745Y-152816600D02*
X142779697Y-152723742D01*
X142779697Y-152568980D01*
X142748745Y-152507076D01*
X142717792Y-152476123D01*
X142655888Y-152445171D01*
X142593983Y-152445171D01*
X142532078Y-152476123D01*
X142501126Y-152507076D01*
X142470173Y-152568980D01*
X142439221Y-152692790D01*
X142408269Y-152754695D01*
X142377316Y-152785647D01*
X142315411Y-152816600D01*
X142253507Y-152816600D01*
X142191602Y-152785647D01*
X142160650Y-152754695D01*
X142129697Y-152692790D01*
X142129697Y-152538028D01*
X142160650Y-152445171D01*
X142129697Y-152042790D02*
X142129697Y-151918980D01*
X142160650Y-151857076D01*
X142222554Y-151795171D01*
X142346364Y-151764219D01*
X142563030Y-151764219D01*
X142686840Y-151795171D01*
X142748745Y-151857076D01*
X142779697Y-151918980D01*
X142779697Y-152042790D01*
X142748745Y-152104695D01*
X142686840Y-152166600D01*
X142563030Y-152197552D01*
X142346364Y-152197552D01*
X142222554Y-152166600D01*
X142160650Y-152104695D01*
X142129697Y-152042790D01*
X140104761Y-124975000D02*
X140042857Y-124944047D01*
X139950000Y-124944047D01*
X139857142Y-124975000D01*
X139795238Y-125036904D01*
X139764285Y-125098809D01*
X139733333Y-125222619D01*
X139733333Y-125315476D01*
X139764285Y-125439285D01*
X139795238Y-125501190D01*
X139857142Y-125563095D01*
X139950000Y-125594047D01*
X140011904Y-125594047D01*
X140104761Y-125563095D01*
X140135714Y-125532142D01*
X140135714Y-125315476D01*
X140011904Y-125315476D01*
X140414285Y-125594047D02*
X140414285Y-124944047D01*
X140785714Y-125594047D01*
X140785714Y-124944047D01*
X141095238Y-125594047D02*
X141095238Y-124944047D01*
X141250000Y-124944047D01*
X141342857Y-124975000D01*
X141404761Y-125036904D01*
X141435714Y-125098809D01*
X141466666Y-125222619D01*
X141466666Y-125315476D01*
X141435714Y-125439285D01*
X141404761Y-125501190D01*
X141342857Y-125563095D01*
X141250000Y-125594047D01*
X141095238Y-125594047D01*
%TO.C,TP1*%
X168100000Y-123240000D02*
G75*
G03*
X168100000Y-123240000I-700000J0D01*
G01*
%TO.C,TP28*%
X156930000Y-131940000D02*
G75*
G03*
X156930000Y-131940000I-700000J0D01*
G01*
%TO.C,TP29*%
X158450000Y-131880000D02*
G75*
G03*
X158450000Y-131880000I-700000J0D01*
G01*
%TO.C,TP49*%
X158581639Y-151414552D02*
G75*
G03*
X158581639Y-151414552I-700000J0D01*
G01*
%TO.C,TP37*%
X170710000Y-141640000D02*
G75*
G03*
X170710000Y-141640000I-700000J0D01*
G01*
%TO.C,TP42*%
X167847301Y-141004064D02*
G75*
G03*
X167847301Y-141004064I-700000J0D01*
G01*
%TO.C,TP43*%
X166297875Y-141223050D02*
G75*
G03*
X166297875Y-141223050I-700000J0D01*
G01*
%TO.C,TP59*%
X146200000Y-154750000D02*
G75*
G03*
X146200000Y-154750000I-700000J0D01*
G01*
%TO.C,TP58*%
X144700000Y-154750000D02*
G75*
G03*
X144700000Y-154750000I-700000J0D01*
G01*
%TO.C,U1*%
X161140000Y-124065000D02*
X162450000Y-124065000D01*
X161140000Y-126785000D02*
X161140000Y-124065000D01*
X164550000Y-124065000D02*
X165860000Y-124065000D01*
X161140000Y-126785000D02*
X161370000Y-126785000D01*
X161370000Y-127925000D02*
X161370000Y-126785000D01*
X165860000Y-126785000D02*
X165630000Y-126785000D01*
X165860000Y-124065000D02*
X165860000Y-126785000D01*
%TO.C,R13*%
X160765000Y-130022936D02*
X160765000Y-130477064D01*
X162235000Y-130022936D02*
X162235000Y-130477064D01*
%TO.C,C4*%
X172020000Y-148500000D02*
G75*
G03*
X172020000Y-148500000I-3270000J0D01*
G01*
%TO.C,J2*%
X172080000Y-128330000D02*
X170750000Y-128330000D01*
X172080000Y-125730000D02*
X169420000Y-125730000D01*
X172080000Y-125730000D02*
X172080000Y-123130000D01*
X172080000Y-123130000D02*
X169420000Y-123130000D01*
X169420000Y-125730000D02*
X169420000Y-123130000D01*
X172080000Y-127000000D02*
X172080000Y-128330000D01*
%TO.C,C7*%
X153261252Y-150265000D02*
X152738748Y-150265000D01*
X153261252Y-151735000D02*
X152738748Y-151735000D01*
%TO.C,R7*%
X157660000Y-147272936D02*
X157660000Y-148727064D01*
X155840000Y-147272936D02*
X155840000Y-148727064D01*
%TO.C,Q1*%
X153250000Y-146190000D02*
X151575000Y-146190000D01*
X153250000Y-149310000D02*
X152600000Y-149310000D01*
X153250000Y-146190000D02*
X153900000Y-146190000D01*
X153250000Y-149310000D02*
X153900000Y-149310000D01*
%TO.C,TP47*%
X152210745Y-144875147D02*
G75*
G03*
X152210745Y-144875147I-700000J0D01*
G01*
%TO.C,TP50*%
X162700000Y-172750000D02*
G75*
G03*
X162700000Y-172750000I-700000J0D01*
G01*
%TO.C,TP51*%
X160700000Y-172750000D02*
G75*
G03*
X160700000Y-172750000I-700000J0D01*
G01*
%TO.C,R11*%
X149079102Y-129651958D02*
X149079102Y-129197830D01*
X150549102Y-129651958D02*
X150549102Y-129197830D01*
%TO.C,C5*%
X150485000Y-141761252D02*
X150485000Y-141238748D01*
X149015000Y-141761252D02*
X149015000Y-141238748D01*
%TO.C,C8*%
X164770000Y-148500000D02*
G75*
G03*
X164770000Y-148500000I-3270000J0D01*
G01*
%TO.C,R3*%
X146265000Y-145685436D02*
X146265000Y-146139564D01*
X147735000Y-145685436D02*
X147735000Y-146139564D01*
%TO.C,TP45*%
X149200000Y-154750000D02*
G75*
G03*
X149200000Y-154750000I-700000J0D01*
G01*
%TO.C,TP36*%
X163810000Y-134580000D02*
G75*
G03*
X163810000Y-134580000I-700000J0D01*
G01*
%TO.C,TP38*%
X171216242Y-143132158D02*
G75*
G03*
X171216242Y-143132158I-700000J0D01*
G01*
%TO.C,TP10*%
X142390000Y-160390000D02*
G75*
G03*
X142390000Y-160390000I-700000J0D01*
G01*
%TO.C,TP57*%
X143200000Y-154750000D02*
G75*
G03*
X143200000Y-154750000I-700000J0D01*
G01*
%TO.C,TP39*%
X169659117Y-143239234D02*
G75*
G03*
X169659117Y-143239234I-700000J0D01*
G01*
%TO.C,Q2*%
X151207220Y-129395713D02*
X151207220Y-128745713D01*
X151207220Y-129395713D02*
X151207220Y-131070713D01*
X154327220Y-129395713D02*
X154327220Y-130045713D01*
X154327220Y-129395713D02*
X154327220Y-128745713D01*
%TO.C,C2*%
X164761252Y-129265000D02*
X164238748Y-129265000D01*
X164761252Y-130735000D02*
X164238748Y-130735000D01*
%TO.C,R6*%
X150485000Y-149522936D02*
X150485000Y-149977064D01*
X149015000Y-149522936D02*
X149015000Y-149977064D01*
%TO.C,TP46*%
X141700000Y-154750000D02*
G75*
G03*
X141700000Y-154750000I-700000J0D01*
G01*
%TO.C,TP48*%
X150700000Y-154750000D02*
G75*
G03*
X150700000Y-154750000I-700000J0D01*
G01*
%TO.C,D2*%
X148135000Y-148377500D02*
X145865000Y-148377500D01*
X145865000Y-148377500D02*
X145865000Y-152262500D01*
X148135000Y-152262500D02*
X148135000Y-148377500D01*
%TO.C,R12*%
X149522936Y-125090000D02*
X150977064Y-125090000D01*
X149522936Y-126910000D02*
X150977064Y-126910000D01*
%TO.C,U2*%
X153840000Y-142610000D02*
X153390000Y-142610000D01*
X153390000Y-142610000D02*
X153390000Y-142160000D01*
X160610000Y-135390000D02*
X160610000Y-135840000D01*
X160610000Y-142610000D02*
X160610000Y-142160000D01*
X153840000Y-135390000D02*
X153390000Y-135390000D01*
X160160000Y-142610000D02*
X160610000Y-142610000D01*
X153390000Y-135390000D02*
X153390000Y-135840000D01*
X153390000Y-135840000D02*
X152100000Y-135840000D01*
X160160000Y-135390000D02*
X160610000Y-135390000D01*
%TO.C,TP61*%
X152450000Y-134500000D02*
G75*
G03*
X152450000Y-134500000I-700000J0D01*
G01*
%TO.C,TP41*%
X167216991Y-139600574D02*
G75*
G03*
X167216991Y-139600574I-700000J0D01*
G01*
%TO.C,R5*%
X150485000Y-146139564D02*
X150485000Y-145685436D01*
X149015000Y-146139564D02*
X149015000Y-145685436D01*
%TO.C,R2*%
X143265000Y-145685436D02*
X143265000Y-146139564D01*
X144735000Y-145685436D02*
X144735000Y-146139564D01*
%TO.C,C9*%
X158241650Y-128550186D02*
X158764154Y-128550186D01*
X158241650Y-127080186D02*
X158764154Y-127080186D01*
%TO.C,C6*%
X150485000Y-137761252D02*
X150485000Y-137238748D01*
X149015000Y-137761252D02*
X149015000Y-137238748D01*
%TO.C,R1*%
X141522936Y-136985000D02*
X141977064Y-136985000D01*
X141522936Y-135515000D02*
X141977064Y-135515000D01*
%TO.C,TP9*%
X146800000Y-123600000D02*
G75*
G03*
X146800000Y-123600000I-700000J0D01*
G01*
%TO.C,U3*%
X152000000Y-172750000D02*
X140000000Y-172750000D01*
X140000000Y-172750000D02*
X140000000Y-158250000D01*
X140000000Y-158250000D02*
X152000000Y-158250000D01*
X152000000Y-158250000D02*
X152000000Y-172750000D01*
%TO.C,D1*%
X145135000Y-152262500D02*
X145135000Y-148377500D01*
X142865000Y-148377500D02*
X142865000Y-152262500D01*
X145135000Y-148377500D02*
X142865000Y-148377500D01*
%TO.C,R9*%
X158272936Y-125015000D02*
X158727064Y-125015000D01*
X158272936Y-126485000D02*
X158727064Y-126485000D01*
%TO.C,TP19*%
X150302658Y-134613853D02*
G75*
G03*
X150302658Y-134613853I-700000J0D01*
G01*
%TO.C,TP26*%
X153890612Y-132091864D02*
G75*
G03*
X153890612Y-132091864I-700000J0D01*
G01*
%TO.C,U4*%
X170750000Y-153650000D02*
X170750000Y-152750000D01*
X155300000Y-153650000D02*
X154900000Y-153650000D01*
X154900000Y-153650000D02*
X154900000Y-169850000D01*
X171100000Y-169850000D02*
X170700000Y-169850000D01*
X154900000Y-169850000D02*
X155300000Y-169850000D01*
X171100000Y-153650000D02*
X170750000Y-153650000D01*
X171100000Y-153650000D02*
X171100000Y-169850000D01*
%TO.C,TP40*%
X168108313Y-143295525D02*
G75*
G03*
X168108313Y-143295525I-700000J0D01*
G01*
%TO.C,TP12*%
X172320000Y-145040000D02*
G75*
G03*
X172320000Y-145040000I-700000J0D01*
G01*
%TO.C,SW1*%
X142300000Y-143050000D02*
X142750000Y-143500000D01*
X142750000Y-138000000D02*
X145250000Y-138000000D01*
X145700000Y-138450000D02*
X145250000Y-138000000D01*
X142300000Y-138450000D02*
X142750000Y-138000000D01*
X141250000Y-139750000D02*
X141250000Y-141750000D01*
X146750000Y-139750000D02*
X146750000Y-141750000D01*
X142750000Y-143500000D02*
X145250000Y-143500000D01*
X145700000Y-143050000D02*
X145250000Y-143500000D01*
%TO.C,TP44*%
X147700000Y-154750000D02*
G75*
G03*
X147700000Y-154750000I-700000J0D01*
G01*
%TO.C,D3*%
X142135000Y-148377500D02*
X139865000Y-148377500D01*
X139865000Y-148377500D02*
X139865000Y-152262500D01*
X142135000Y-152262500D02*
X142135000Y-148377500D01*
%TO.C,R8*%
X154877064Y-125845000D02*
X154422936Y-125845000D01*
X154877064Y-127315000D02*
X154422936Y-127315000D01*
%TO.C,C1*%
X168235000Y-125413748D02*
X168235000Y-125936252D01*
X166765000Y-125413748D02*
X166765000Y-125936252D01*
%TO.C,TP52*%
X170700000Y-172750000D02*
G75*
G03*
X170700000Y-172750000I-700000J0D01*
G01*
%TO.C,TP53*%
X168700000Y-172750000D02*
G75*
G03*
X168700000Y-172750000I-700000J0D01*
G01*
%TO.C,TP35*%
X162350000Y-133800000D02*
G75*
G03*
X162350000Y-133800000I-700000J0D01*
G01*
%TO.C,R10*%
X150522936Y-131753900D02*
X150977064Y-131753900D01*
X150522936Y-133223900D02*
X150977064Y-133223900D01*
%TO.C,TP13*%
X143004403Y-124342901D02*
G75*
G03*
X143004403Y-124342901I-700000J0D01*
G01*
%TO.C,C10*%
X147770000Y-128250000D02*
G75*
G03*
X147770000Y-128250000I-3270000J0D01*
G01*
%TO.C,TP54*%
X166700000Y-172750000D02*
G75*
G03*
X166700000Y-172750000I-700000J0D01*
G01*
%TO.C,TP27*%
X155460000Y-132480000D02*
G75*
G03*
X155460000Y-132480000I-700000J0D01*
G01*
%TO.C,TP14*%
X143278458Y-134164229D02*
G75*
G03*
X143278458Y-134164229I-700000J0D01*
G01*
%TO.C,C3*%
X168235000Y-129511252D02*
X168235000Y-128988748D01*
X166765000Y-129511252D02*
X166765000Y-128988748D01*
%TO.C,R4*%
X140265000Y-145685436D02*
X140265000Y-146139564D01*
X141735000Y-145685436D02*
X141735000Y-146139564D01*
%TO.C,TP11*%
X169370000Y-164420000D02*
G75*
G03*
X169370000Y-164420000I-700000J0D01*
G01*
%TO.C,TP31*%
X161358682Y-132580539D02*
G75*
G03*
X161358682Y-132580539I-700000J0D01*
G01*
%TO.C,TP30*%
X159960000Y-131970000D02*
G75*
G03*
X159960000Y-131970000I-700000J0D01*
G01*
%TD*%
M02*
