M48
; DRILL file {KiCad 6.0.11-2627ca5db0~126~ubuntu22.04.1} date Fri Feb 10 03:37:07 2023
; FORMAT={-:-/ absolute / inch / decimal}
; #@! TF.CreationDate,2023-02-10T03:37:07+05:30
; #@! TF.GenerationSoftware,Kicad,Pcbnew,6.0.11-2627ca5db0~126~ubuntu22.04.1
; #@! TF.FileFunction,MixedPlating,1,2
FMAT,2
INCH
; #@! TA.AperFunction,Plated,PTH,ViaDrill
T1C0.0157
; #@! TA.AperFunction,Plated,PTH,ComponentDrill
T2C0.0315
; #@! TA.AperFunction,Plated,PTH,ComponentDrill
T3C0.0394
; #@! TA.AperFunction,Plated,PTH,ComponentDrill
T4C0.0728
%
G90
G05
T1
X5.5512Y-5.2362
X5.5809Y-6.0573
X5.6195Y-5.4156
X5.6694Y-5.931
X5.7208Y-6.0056
X5.7315Y-5.95
X5.7726Y-5.5266
X5.7972Y-5.935
X5.812Y-5.5492
X5.8394Y-5.3283
X5.8465Y-5.0591
X5.8858Y-5.9843
X5.9294Y-6.3186
X5.9296Y-6.3579
X5.934Y-6.4317
X5.9456Y-5.3541
X5.9467Y-5.3942
X5.947Y-5.4336
X5.9785Y-6.023
X5.9843Y-5.8886
X6.0144Y-5.1299
X6.026Y-5.8933
X6.0472Y-6.0917
X6.0598Y-6.2874
X6.0669Y-5.02
X6.088Y-5.5424
X6.1014Y-5.7
X6.1272Y-5.5458
X6.1345Y-5.7213
X6.1417Y-5.0394
X6.1558Y-6.2757
X6.1784Y-5.7165
X6.1811Y-5.4331
X6.1992Y-5.5661
X6.2094Y-4.8996
X6.2785Y-5.4972
X6.2785Y-5.7318
X6.2992Y-6.3878
X6.3047Y-5.1673
X6.3118Y-5.8287
X6.3189Y-4.9047
X6.325Y-5.0521
X6.3543Y-5.624
X6.378Y-6.3593
X6.4006Y-5.2289
X6.4142Y-6.1509
X6.4151Y-5.6932
X6.4205Y-6.193
X6.4248Y-5.064
X6.4264Y-5.9429
X6.4346Y-6.2835
X6.4396Y-5.19
X6.4545Y-5.5981
X6.4593Y-5.2705
X6.4675Y-5.9435
X6.4951Y-5.6702
X6.5103Y-6.3135
X6.5472Y-5.6111
X6.6181Y-6.2264
X6.752Y-5.5807
T2
X5.6721Y-5.0955
X5.7058Y-5.003
X6.3583Y-5.7972
X6.3583Y-5.8957
X6.6437Y-5.7972
X6.6437Y-5.8957
T3
X6.7224Y-4.9
X6.7224Y-5.0
T4
X5.7559Y-5.2854
X6.5866Y-5.2854
T0
M30
