%TF.GenerationSoftware,KiCad,Pcbnew,6.0.11-2627ca5db0~126~ubuntu22.04.1*%
%TF.CreationDate,2023-02-10T03:37:06+05:30*%
%TF.ProjectId,thermal_sampler,74686572-6d61-46c5-9f73-616d706c6572,rev?*%
%TF.SameCoordinates,Original*%
%TF.FileFunction,Soldermask,Top*%
%TF.FilePolarity,Negative*%
%FSLAX46Y46*%
G04 Gerber Fmt 4.6, Leading zero omitted, Abs format (unit mm)*
G04 Created by KiCad (PCBNEW 6.0.11-2627ca5db0~126~ubuntu22.04.1) date 2023-02-10 03:37:06*
%MOMM*%
%LPD*%
G01*
G04 APERTURE LIST*
G04 Aperture macros list*
%AMRoundRect*
0 Rectangle with rounded corners*
0 $1 Rounding radius*
0 $2 $3 $4 $5 $6 $7 $8 $9 X,Y pos of 4 corners*
0 Add a 4 corners polygon primitive as box body*
4,1,4,$2,$3,$4,$5,$6,$7,$8,$9,$2,$3,0*
0 Add four circle primitives for the rounded corners*
1,1,$1+$1,$2,$3*
1,1,$1+$1,$4,$5*
1,1,$1+$1,$6,$7*
1,1,$1+$1,$8,$9*
0 Add four rect primitives between the rounded corners*
20,1,$1+$1,$2,$3,$4,$5,0*
20,1,$1+$1,$4,$5,$6,$7,0*
20,1,$1+$1,$6,$7,$8,$9,0*
20,1,$1+$1,$8,$9,$2,$3,0*%
%AMFreePoly0*
4,1,9,3.862500,-0.866500,0.737500,-0.866500,0.737500,-0.450000,-0.737500,-0.450000,-0.737500,0.450000,0.737500,0.450000,0.737500,0.866500,3.862500,0.866500,3.862500,-0.866500,3.862500,-0.866500,$1*%
G04 Aperture macros list end*
%ADD10C,1.000000*%
%ADD11C,2.000000*%
%ADD12R,0.900000X1.300000*%
%ADD13FreePoly0,90.000000*%
%ADD14RoundRect,0.250000X-0.450000X0.262500X-0.450000X-0.262500X0.450000X-0.262500X0.450000X0.262500X0*%
%ADD15C,1.600000*%
%ADD16R,1.700000X1.700000*%
%ADD17O,1.700000X1.700000*%
%ADD18RoundRect,0.250000X0.250000X0.475000X-0.250000X0.475000X-0.250000X-0.475000X0.250000X-0.475000X0*%
%ADD19RoundRect,0.250000X-0.625000X0.312500X-0.625000X-0.312500X0.625000X-0.312500X0.625000X0.312500X0*%
%ADD20RoundRect,0.150000X-0.587500X-0.150000X0.587500X-0.150000X0.587500X0.150000X-0.587500X0.150000X0*%
%ADD21RoundRect,0.250000X0.450000X-0.262500X0.450000X0.262500X-0.450000X0.262500X-0.450000X-0.262500X0*%
%ADD22RoundRect,0.250000X0.475000X-0.250000X0.475000X0.250000X-0.475000X0.250000X-0.475000X-0.250000X0*%
%ADD23RoundRect,0.150000X0.150000X-0.587500X0.150000X0.587500X-0.150000X0.587500X-0.150000X-0.587500X0*%
%ADD24RoundRect,0.250000X-0.625000X0.375000X-0.625000X-0.375000X0.625000X-0.375000X0.625000X0.375000X0*%
%ADD25RoundRect,0.250000X-0.312500X-0.625000X0.312500X-0.625000X0.312500X0.625000X-0.312500X0.625000X0*%
%ADD26RoundRect,0.075000X-0.662500X-0.075000X0.662500X-0.075000X0.662500X0.075000X-0.662500X0.075000X0*%
%ADD27RoundRect,0.075000X-0.075000X-0.662500X0.075000X-0.662500X0.075000X0.662500X-0.075000X0.662500X0*%
%ADD28RoundRect,0.250000X-0.250000X-0.475000X0.250000X-0.475000X0.250000X0.475000X-0.250000X0.475000X0*%
%ADD29RoundRect,0.250000X-0.262500X-0.450000X0.262500X-0.450000X0.262500X0.450000X-0.262500X0.450000X0*%
%ADD30RoundRect,0.250000X0.250000X0.750000X-0.250000X0.750000X-0.250000X-0.750000X0.250000X-0.750000X0*%
%ADD31R,1.000000X2.000000*%
%ADD32R,1.700000X1.000000*%
%ADD33RoundRect,0.250000X0.262500X0.450000X-0.262500X0.450000X-0.262500X-0.450000X0.262500X-0.450000X0*%
%ADD34RoundRect,0.250000X-0.475000X0.250000X-0.475000X-0.250000X0.475000X-0.250000X0.475000X0.250000X0*%
%ADD35C,3.175000*%
G04 APERTURE END LIST*
D10*
%TO.C,TP1*%
X167400000Y-123240000D03*
%TD*%
%TO.C,TP28*%
X156230000Y-131940000D03*
%TD*%
%TO.C,TP29*%
X157750000Y-131880000D03*
%TD*%
%TO.C,TP49*%
X157881639Y-151414552D03*
%TD*%
D11*
%TO.C,J5*%
X158330000Y-165230000D03*
X160870000Y-165230000D03*
X163410000Y-165230000D03*
%TD*%
D10*
%TO.C,TP37*%
X170010000Y-141640000D03*
%TD*%
%TO.C,TP42*%
X167147301Y-141004064D03*
%TD*%
%TO.C,TP43*%
X165597875Y-141223050D03*
%TD*%
%TO.C,TP59*%
X145500000Y-154750000D03*
%TD*%
%TO.C,TP58*%
X144000000Y-154750000D03*
%TD*%
D12*
%TO.C,U1*%
X162000000Y-127375000D03*
D13*
X163500000Y-127287500D03*
D12*
X165000000Y-127375000D03*
%TD*%
D14*
%TO.C,R13*%
X161500000Y-129337500D03*
X161500000Y-131162500D03*
%TD*%
D15*
%TO.C,C4*%
X168750000Y-147250000D03*
X168750000Y-149750000D03*
%TD*%
D16*
%TO.C,J2*%
X170750000Y-127000000D03*
D17*
X170750000Y-124460000D03*
%TD*%
D18*
%TO.C,C7*%
X153950000Y-151000000D03*
X152050000Y-151000000D03*
%TD*%
D19*
%TO.C,R7*%
X156750000Y-146537500D03*
X156750000Y-149462500D03*
%TD*%
D20*
%TO.C,Q1*%
X152312500Y-146800000D03*
X152312500Y-148700000D03*
X154187500Y-147750000D03*
%TD*%
D10*
%TO.C,TP47*%
X151510745Y-144875147D03*
%TD*%
%TO.C,TP50*%
X162000000Y-172750000D03*
%TD*%
%TO.C,TP51*%
X160000000Y-172750000D03*
%TD*%
D21*
%TO.C,R11*%
X149814102Y-130337394D03*
X149814102Y-128512394D03*
%TD*%
D22*
%TO.C,C5*%
X149750000Y-142450000D03*
X149750000Y-140550000D03*
%TD*%
D11*
%TO.C,J6*%
X151460000Y-123500000D03*
X154000000Y-123500000D03*
X156540000Y-123500000D03*
X159080000Y-123500000D03*
%TD*%
D15*
%TO.C,C8*%
X161500000Y-147250000D03*
X161500000Y-149750000D03*
%TD*%
D14*
%TO.C,R3*%
X147000000Y-145000000D03*
X147000000Y-146825000D03*
%TD*%
D10*
%TO.C,TP45*%
X148500000Y-154750000D03*
%TD*%
%TO.C,TP36*%
X163110000Y-134580000D03*
%TD*%
%TO.C,TP38*%
X170516242Y-143132158D03*
%TD*%
%TO.C,TP10*%
X141690000Y-160390000D03*
%TD*%
%TO.C,TP57*%
X142500000Y-154750000D03*
%TD*%
%TO.C,TP39*%
X168959117Y-143239234D03*
%TD*%
D23*
%TO.C,Q2*%
X151817220Y-130333213D03*
X153717220Y-130333213D03*
X152767220Y-128458213D03*
%TD*%
D18*
%TO.C,C2*%
X165450000Y-130000000D03*
X163550000Y-130000000D03*
%TD*%
D14*
%TO.C,R6*%
X149750000Y-148837500D03*
X149750000Y-150662500D03*
%TD*%
D10*
%TO.C,TP46*%
X141000000Y-154750000D03*
%TD*%
%TO.C,TP48*%
X150000000Y-154750000D03*
%TD*%
D11*
%TO.C,J4*%
X156000000Y-172500000D03*
%TD*%
D24*
%TO.C,D2*%
X147000000Y-149262500D03*
X147000000Y-152062500D03*
%TD*%
D25*
%TO.C,R12*%
X148787500Y-126000000D03*
X151712500Y-126000000D03*
%TD*%
D26*
%TO.C,U2*%
X152837500Y-136250000D03*
X152837500Y-136750000D03*
X152837500Y-137250000D03*
X152837500Y-137750000D03*
X152837500Y-138250000D03*
X152837500Y-138750000D03*
X152837500Y-139250000D03*
X152837500Y-139750000D03*
X152837500Y-140250000D03*
X152837500Y-140750000D03*
X152837500Y-141250000D03*
X152837500Y-141750000D03*
D27*
X154250000Y-143162500D03*
X154750000Y-143162500D03*
X155250000Y-143162500D03*
X155750000Y-143162500D03*
X156250000Y-143162500D03*
X156750000Y-143162500D03*
X157250000Y-143162500D03*
X157750000Y-143162500D03*
X158250000Y-143162500D03*
X158750000Y-143162500D03*
X159250000Y-143162500D03*
X159750000Y-143162500D03*
D26*
X161162500Y-141750000D03*
X161162500Y-141250000D03*
X161162500Y-140750000D03*
X161162500Y-140250000D03*
X161162500Y-139750000D03*
X161162500Y-139250000D03*
X161162500Y-138750000D03*
X161162500Y-138250000D03*
X161162500Y-137750000D03*
X161162500Y-137250000D03*
X161162500Y-136750000D03*
X161162500Y-136250000D03*
D27*
X159750000Y-134837500D03*
X159250000Y-134837500D03*
X158750000Y-134837500D03*
X158250000Y-134837500D03*
X157750000Y-134837500D03*
X157250000Y-134837500D03*
X156750000Y-134837500D03*
X156250000Y-134837500D03*
X155750000Y-134837500D03*
X155250000Y-134837500D03*
X154750000Y-134837500D03*
X154250000Y-134837500D03*
%TD*%
D10*
%TO.C,TP61*%
X151750000Y-134500000D03*
%TD*%
%TO.C,TP41*%
X166516991Y-139600574D03*
%TD*%
D21*
%TO.C,R5*%
X149750000Y-146825000D03*
X149750000Y-145000000D03*
%TD*%
D14*
%TO.C,R2*%
X144000000Y-145000000D03*
X144000000Y-146825000D03*
%TD*%
D28*
%TO.C,C9*%
X157552902Y-127815186D03*
X159452902Y-127815186D03*
%TD*%
D22*
%TO.C,C6*%
X149750000Y-138450000D03*
X149750000Y-136550000D03*
%TD*%
D29*
%TO.C,R1*%
X140837500Y-136250000D03*
X142662500Y-136250000D03*
%TD*%
D10*
%TO.C,TP9*%
X146100000Y-123600000D03*
%TD*%
D30*
%TO.C,U3*%
X150400000Y-157000000D03*
X149130000Y-157000000D03*
X147860000Y-157000000D03*
X146590000Y-157000000D03*
X145320000Y-157000000D03*
X144050000Y-157000000D03*
X142780000Y-157000000D03*
X141510000Y-157000000D03*
%TD*%
D24*
%TO.C,D1*%
X144000000Y-149262500D03*
X144000000Y-152062500D03*
%TD*%
D11*
%TO.C,J7*%
X158374190Y-130000000D03*
X155834190Y-130000000D03*
%TD*%
D29*
%TO.C,R9*%
X157587500Y-125750000D03*
X159412500Y-125750000D03*
%TD*%
D10*
%TO.C,TP19*%
X149602658Y-134613853D03*
%TD*%
%TO.C,TP26*%
X153190612Y-132091864D03*
%TD*%
D31*
%TO.C,U4*%
X170000000Y-153750000D03*
X168000000Y-153750000D03*
X166000000Y-153750000D03*
X164000000Y-153750000D03*
X162000000Y-153750000D03*
X160000000Y-153750000D03*
X158000000Y-153750000D03*
X156000000Y-153750000D03*
X156000000Y-169750000D03*
X158000000Y-169750000D03*
X160000000Y-169750000D03*
X162000000Y-169750000D03*
X164000000Y-169750000D03*
X166000000Y-169750000D03*
X168000000Y-169750000D03*
X170000000Y-169750000D03*
%TD*%
D11*
%TO.C,J3*%
X171250000Y-139560000D03*
X171250000Y-137020000D03*
X171250000Y-134480000D03*
X171250000Y-131940000D03*
%TD*%
D10*
%TO.C,TP40*%
X167408313Y-143295525D03*
%TD*%
%TO.C,TP12*%
X171620000Y-145040000D03*
%TD*%
D32*
%TO.C,SW1*%
X147150000Y-138850000D03*
X140850000Y-138850000D03*
X140850000Y-142650000D03*
X147150000Y-142650000D03*
%TD*%
D10*
%TO.C,TP44*%
X147000000Y-154750000D03*
%TD*%
D24*
%TO.C,D3*%
X141000000Y-149262500D03*
X141000000Y-152062500D03*
%TD*%
D33*
%TO.C,R8*%
X153737500Y-126580000D03*
X155562500Y-126580000D03*
%TD*%
D34*
%TO.C,C1*%
X167500000Y-124725000D03*
X167500000Y-126625000D03*
%TD*%
D10*
%TO.C,TP52*%
X170000000Y-172750000D03*
%TD*%
%TO.C,TP53*%
X168000000Y-172750000D03*
%TD*%
%TO.C,TP35*%
X161650000Y-133800000D03*
%TD*%
D29*
%TO.C,R10*%
X149837500Y-132488900D03*
X151662500Y-132488900D03*
%TD*%
D10*
%TO.C,TP13*%
X142304403Y-124342901D03*
%TD*%
D15*
%TO.C,C10*%
X144927525Y-127075384D03*
X144072475Y-129424616D03*
%TD*%
D10*
%TO.C,TP54*%
X166000000Y-172750000D03*
%TD*%
%TO.C,TP27*%
X154760000Y-132480000D03*
%TD*%
%TO.C,TP14*%
X142578458Y-134164229D03*
%TD*%
D22*
%TO.C,C3*%
X167500000Y-130200000D03*
X167500000Y-128300000D03*
%TD*%
D14*
%TO.C,R4*%
X141000000Y-145000000D03*
X141000000Y-146825000D03*
%TD*%
D10*
%TO.C,TP11*%
X168670000Y-164420000D03*
%TD*%
%TO.C,TP31*%
X160658682Y-132580539D03*
%TD*%
%TO.C,TP30*%
X159260000Y-131970000D03*
%TD*%
D35*
%TO.C,J1*%
X167300000Y-134250000D03*
X146200000Y-134250000D03*
%TD*%
M02*
